<svg width="40" height="40" viewBox="0 0 40 40" fill="none" xmlns="http://www.w3.org/2000/svg">
<rect x="0.5" y="0.5" width="39" height="39" rx="7.5" stroke="#FF5B5F"/>
<path d="M30 16.9999L24 22.9999M24 16.9999L30 22.9999M17.6343 13.3656L14.4686 16.5313C14.2957 16.7042 14.2092 16.7907 14.1083 16.8526C14.0188 16.9074 13.9213 16.9478 13.8192 16.9723C13.7041 16.9999 13.5818 16.9999 13.3373 16.9999H11.6C11.0399 16.9999 10.7599 16.9999 10.546 17.1089C10.3578 17.2048 10.2049 17.3578 10.109 17.5459C10 17.7598 10 18.0399 10 18.5999V21.3999C10 21.96 10 22.24 10.109 22.4539C10.2049 22.6421 10.3578 22.7951 10.546 22.8909C10.7599 22.9999 11.0399 22.9999 11.6 22.9999H13.3373C13.5818 22.9999 13.7041 22.9999 13.8192 23.0276C13.9213 23.0521 14.0188 23.0925 14.1083 23.1473C14.2092 23.2091 14.2957 23.2956 14.4686 23.4686L17.6343 26.6342C18.0627 27.0626 18.2769 27.2768 18.4608 27.2913C18.6203 27.3038 18.7763 27.2392 18.8802 27.1175C19 26.9773 19 26.6744 19 26.0686V13.9313C19 13.3255 19 13.0226 18.8802 12.8823C18.7763 12.7606 18.6203 12.696 18.4608 12.7086C18.2769 12.723 18.0627 12.9372 17.6343 13.3656Z" stroke="white" stroke-width="1.5" stroke-linecap="round"/>
</svg>
