<svg xmlns="http://www.w3.org/2000/svg" xmlns:xlink="http://www.w3.org/1999/xlink" width="83.654" height="89.32" viewBox="0 0 83.654 89.32">
  <defs>
    <clipPath id="clip-path">
      <rect id="Rectangle_2" data-name="Rectangle 2" width="83.654" height="89.32" fill="#fff"/>
    </clipPath>
  </defs>
  <g id="Group_16" data-name="Group 16" transform="translate(1540.355 -553.828)">
    <g id="Group_5" data-name="Group 5" transform="translate(-1540.355 553.828)">
      <path id="Path_20" data-name="Path 20" d="M17.89,135.361h-.615l-.2-2.785-1.69,3.092-.937-3.092-.871,2.785h-.662l1.513-4.678,1.1,3.57,2-3.669Z" transform="translate(-4.705 -47.567)" fill="#fff"/>
      <g id="Group_4" data-name="Group 4">
        <g id="Group_3" data-name="Group 3" clip-path="url(#clip-path)">
          <path id="Path_21" data-name="Path 21" d="M25.631,134.909a.632.632,0,0,0-.681-.615.687.687,0,0,0-.714.615Zm-1.434.5a.671.671,0,0,0,.734.668.772.772,0,0,0,.668-.327l.465.263a1.375,1.375,0,0,1-2.5-.753,1.426,1.426,0,0,1,1.422-1.494,1.265,1.265,0,0,1,1.284,1.422l-.006.223Z" transform="translate(-8.582 -48.727)" fill="#fff"/>
          <path id="Path_22" data-name="Path 22" d="M31.263,134.111A.919.919,0,0,1,32,133.79a.58.58,0,0,1,.629.433,1.076,1.076,0,0,1,.858-.427c.518,0,.793.256.793.727a3.239,3.239,0,0,1-.053.538l-.177,1.467h-.629l.19-1.54c.02-.137.027-.242.032-.321.013-.223-.118-.346-.353-.346a.6.6,0,0,0-.425.177.969.969,0,0,0-.178.544l-.182,1.487h-.629l.2-1.579c.014-.119.027-.25.027-.3a.314.314,0,0,0-.36-.333.568.568,0,0,0-.433.2,1.1,1.1,0,0,0-.177.518l-.184,1.487H30.32l.328-2.666H31.3Z" transform="translate(-11.044 -48.735)" fill="#fff"/>
          <path id="Path_23" data-name="Path 23" d="M39.968,134.11a.739.739,0,0,0,.747.793.9.9,0,0,0,.872-.937.753.753,0,0,0-.767-.812.882.882,0,0,0-.851.956m.158-1.172a1.293,1.293,0,0,1,.839-.308,1.243,1.243,0,0,1,1.25,1.317,1.421,1.421,0,0,1-1.389,1.481,1.2,1.2,0,0,1-.957-.425l-.045.359H39.2l.59-4.775h.622Z" transform="translate(-14.28 -47.568)" fill="#fff"/>
          <path id="Path_24" data-name="Path 24" d="M48.5,134.909a.632.632,0,0,0-.681-.615.687.687,0,0,0-.714.615Zm-1.434.5a.671.671,0,0,0,.734.668.772.772,0,0,0,.668-.327l.465.263a1.375,1.375,0,0,1-2.5-.753,1.426,1.426,0,0,1,1.422-1.494,1.266,1.266,0,0,1,1.284,1.422l-.006.223Z" transform="translate(-16.915 -48.727)" fill="#fff"/>
          <path id="Path_25" data-name="Path 25" d="M54.118,134.092a.828.828,0,0,1,.642-.3.643.643,0,0,1,.511.209l-.4.511a.5.5,0,0,0-.341-.151.437.437,0,0,0-.334.158,1.245,1.245,0,0,0-.216.681l-.163,1.331h-.623l.327-2.668h.622Z" transform="translate(-19.377 -48.735)" fill="#fff"/>
          <path id="Path_26" data-name="Path 26" d="M62.572,135.2a.82.82,0,0,0,.832.885.871.871,0,0,0,.845-.95.776.776,0,0,0-.805-.839.859.859,0,0,0-.872.9m2.306-.032a1.429,1.429,0,0,1-1.461,1.441,1.384,1.384,0,0,1-1.474-1.4,1.436,1.436,0,0,1,1.5-1.441,1.351,1.351,0,0,1,1.434,1.4" transform="translate(-22.564 -48.728)" fill="#fff"/>
          <path id="Path_27" data-name="Path 27" d="M69.659,135.358h-.622l.256-2.083h-.406l.072-.583h.406l.144-1.193a1.156,1.156,0,0,1,.275-.714.825.825,0,0,1,.557-.209,1.144,1.144,0,0,1,.53.144l-.065.55a.481.481,0,0,0-.327-.143c-.223,0-.315.131-.367.549l-.124,1.016h.57l-.072.583h-.57Z" transform="translate(-25.093 -47.564)" fill="#fff"/>
          <path id="Path_28" data-name="Path 28" d="M78.18,133.229h.3a.887.887,0,0,0,.734-.223.832.832,0,0,0,.2-.544.594.594,0,0,0-.334-.57,1.345,1.345,0,0,0-.459-.066H78.35Zm1.886,2.365h-.688L78.344,133.8h-.236l-.216,1.795h-.648l.536-4.37h.859a1.434,1.434,0,0,1,1.008.263,1.294,1.294,0,0,1,.42.982,1.265,1.265,0,0,1-.387.943,1.367,1.367,0,0,1-.707.341Z" transform="translate(-28.137 -47.8)" fill="#fff"/>
          <path id="Path_29" data-name="Path 29" d="M85.272,133.137h.184a.778.778,0,0,0,.635-.21.863.863,0,0,0,.2-.563c0-.374-.2-.537-.636-.537h-.223Zm-.229,1.854h.432a1.2,1.2,0,0,0,.669-.118.722.722,0,0,0,.281-.615c0-.433-.236-.6-.825-.6h-.394Zm.622-3.767a1.184,1.184,0,0,1,.943.287,1.16,1.16,0,0,1,.328.82,1.064,1.064,0,0,1-.636,1.008,1.021,1.021,0,0,1,.484.223.981.981,0,0,1,.289.741,1.284,1.284,0,0,1-.61,1.127,1.89,1.89,0,0,1-.989.164H84.322l.537-4.37Z" transform="translate(-30.715 -47.8)" fill="#fff"/>
          <path id="Path_30" data-name="Path 30" d="M91.925,135.594h-.648l.537-4.37h.648Z" transform="translate(-33.249 -47.8)" fill="#fff"/>
          <path id="Path_31" data-name="Path 31" d="M103.326,133.514a2.662,2.662,0,0,1-.36,1.219,1.807,1.807,0,0,1-1.624.9,2.066,2.066,0,0,1-2.09-2.181,2.227,2.227,0,0,1,2.234-2.359,2.185,2.185,0,0,1,1.795.877l-.427.433a1.639,1.639,0,0,0-1.382-.7,1.589,1.589,0,0,0-1.572,1.736,1.472,1.472,0,0,0,1.481,1.586,1.162,1.162,0,0,0,1.2-.95h-1.081l.072-.557Z" transform="translate(-36.154 -47.752)" fill="#fff"/>
          <path id="Path_32" data-name="Path 32" d="M108.954,134.092a.827.827,0,0,1,.642-.3.643.643,0,0,1,.511.209l-.4.511a.5.5,0,0,0-.34-.151.438.438,0,0,0-.334.158,1.251,1.251,0,0,0-.216.681l-.163,1.331h-.623l.328-2.668h.622Z" transform="translate(-39.351 -48.735)" fill="#fff"/>
          <path id="Path_33" data-name="Path 33" d="M113.73,135.2a.819.819,0,0,0,.832.885.871.871,0,0,0,.846-.95.776.776,0,0,0-.805-.839.859.859,0,0,0-.872.9m2.305-.032a1.429,1.429,0,0,1-1.46,1.441,1.384,1.384,0,0,1-1.474-1.4,1.435,1.435,0,0,1,1.5-1.441,1.351,1.351,0,0,1,1.434,1.4" transform="translate(-41.199 -48.728)" fill="#fff"/>
          <path id="Path_34" data-name="Path 34" d="M122.718,135.455a1.212,1.212,0,0,1-.334.865,1.272,1.272,0,0,1-.9.315.952.952,0,0,1-1.081-.936c0-.078.013-.21.025-.353l.177-1.442h.629l-.183,1.493a1.928,1.928,0,0,0-.027.289c0,.275.177.426.5.426.353,0,.5-.17.564-.629l.2-1.579h.622Z" transform="translate(-43.86 -48.776)" fill="#fff"/>
          <path id="Path_35" data-name="Path 35" d="M127.519,135.287a.744.744,0,0,0,.767.786.884.884,0,0,0,.839-.942.738.738,0,0,0-.721-.807.905.905,0,0,0-.885.963m.144-1.14a1.163,1.163,0,0,1,.852-.347,1.239,1.239,0,0,1,1.238,1.31,1.429,1.429,0,0,1-1.4,1.487,1.121,1.121,0,0,1-.937-.445l-.236,1.906h-.623l.518-4.193h.622Z" transform="translate(-46.1 -48.738)" fill="#fff"/>
          <path id="Path_36" data-name="Path 36" d="M0,111.375v1.509H2.561V119.9H4.355v-7.016H6.906v-1.509Z" transform="translate(0 -40.57)" fill="#fff"/>
          <path id="Path_37" data-name="Path 37" d="M13.15,111.376h2.015l3.016,8.524H16.249l-.562-1.752H12.548L11.97,119.9H10.107Zm-.118,5.3h2.184l-1.078-3.354Z" transform="translate(-3.682 -40.57)" fill="#fff"/>
          <path id="Path_38" data-name="Path 38" d="M28.924,111.376v1.509H26.374V119.9H24.581v-7.015H22.019v-1.509Z" transform="translate(-8.021 -40.57)" fill="#fff"/>
          <path id="Path_39" data-name="Path 39" d="M39.987,111.595a2.131,2.131,0,0,1,.8.6,2.633,2.633,0,0,1,.428.718,2.374,2.374,0,0,1,.158.9A2.557,2.557,0,0,1,41.065,115a1.718,1.718,0,0,1-1.012.829,1.6,1.6,0,0,1,.835.675,2.8,2.8,0,0,1,.246,1.333v.573a4.346,4.346,0,0,0,.046.791.711.711,0,0,0,.33.486v.214H39.544q-.082-.284-.117-.456a4.242,4.242,0,0,1-.074-.736l-.011-.791a1.615,1.615,0,0,0-.282-1.088,1.443,1.443,0,0,0-1.014-.271H36.3V119.9H34.564v-8.524h4.078a3.734,3.734,0,0,1,1.345.219M36.3,112.857v2.289h1.917a2.049,2.049,0,0,0,.857-.138.96.96,0,0,0,.506-.961,1.078,1.078,0,0,0-.49-1.041,1.78,1.78,0,0,0-.824-.149Z" transform="translate(-12.59 -40.57)" fill="#fff"/>
          <path id="Path_40" data-name="Path 40" d="M50.119,111.376h2.016L55.15,119.9H53.218l-.562-1.752H49.517l-.579,1.752H47.076Zm-.118,5.3h2.184l-1.078-3.354Z" transform="translate(-17.148 -40.57)" fill="#fff"/>
          <path id="Path_41" data-name="Path 41" d="M73.033,112.284a2.162,2.162,0,0,1,.392,1.3,1.9,1.9,0,0,1-.395,1.255,2.057,2.057,0,0,1-.65.485,1.9,1.9,0,0,1,.985.751,2.26,2.26,0,0,1,.331,1.25,2.482,2.482,0,0,1-.38,1.359,2.35,2.35,0,0,1-1.566,1.1,5.825,5.825,0,0,1-1.2.116H66.7v-8.524h4.119a2.613,2.613,0,0,1,2.21.908m-4.628.572v1.879h2.072a1.72,1.72,0,0,0,.9-.21.809.809,0,0,0,.346-.75.762.762,0,0,0-.458-.786,3.213,3.213,0,0,0-1.008-.134Zm0,3.29v2.274h2.07a2,2,0,0,0,.863-.151,1.071,1.071,0,0,0,.56-1.064.912.912,0,0,0-.542-.912,2.151,2.151,0,0,0-.852-.146Z" transform="translate(-24.298 -40.57)" fill="#fff"/>
          <path id="Path_42" data-name="Path 42" d="M81.786,111.376H83.8l3.015,8.524H84.885l-.561-1.752h-3.14l-.578,1.752H78.743Zm-.118,5.3h2.184l-1.078-3.354Z" transform="translate(-28.683 -40.57)" fill="#fff"/>
          <path id="Path_43" data-name="Path 43" d="M93.1,111.376h1.867l3.384,5.943v-5.943h1.659V119.9H98.234l-3.47-6.048V119.9H93.1Z" transform="translate(-33.914 -40.57)" fill="#fff"/>
          <path id="Path_44" data-name="Path 44" d="M106.317,111.376h1.752v3.512l3.293-3.512h2.3l-3.5,3.506,3.678,5.018h-2.29l-2.627-3.72-.858.87V119.9h-1.752Z" transform="translate(-38.727 -40.57)" fill="#fff"/>
          <path id="Path_45" data-name="Path 45" d="M122.915,113.325l1.077,3.354H121.81Zm-.989-1.95-3.044,8.525h1.864l.577-1.753h3.14l.563,1.753h1.931l-3.015-8.525Z" transform="translate(-43.305 -40.57)" fill="#fff"/>
          <path id="Path_46" data-name="Path 46" d="M97.241,72.153l-.572,2.664h-4.5L89.546,87.2H86.383l2.622-12.38H84.485l.572-2.664Z" transform="translate(-30.775 -26.283)" fill="#fff"/>
          <path id="Path_47" data-name="Path 47" d="M115.613,73.755a3.424,3.424,0,0,1,.214,2.3,4.186,4.186,0,0,1-1.173,2.216,4.7,4.7,0,0,1-1.317.856,2.488,2.488,0,0,1,1.455,1.327,3.61,3.61,0,0,1,.118,2.2,5.444,5.444,0,0,1-1.184,2.4,5.741,5.741,0,0,1-1.326,1.182,5.171,5.171,0,0,1-1.864.756,11.138,11.138,0,0,1-2.178.2H101.54l3.194-15.043h7.307q2.755.041,3.572,1.6m-9.676,6.817-.847,4.011h3.695a3.994,3.994,0,0,0,1.591-.266,2.456,2.456,0,0,0,1.41-1.877,1.3,1.3,0,0,0-.633-1.613,3.5,3.5,0,0,0-1.47-.255Zm1.236-5.807-.7,3.317h3.694a3.548,3.548,0,0,0,1.689-.373,1.827,1.827,0,0,0,.9-1.322q.214-1.05-.521-1.388a5.406,5.406,0,0,0-1.755-.235Z" transform="translate(-36.987 -26.282)" fill="#fff"/>
          <path id="Path_48" data-name="Path 48" d="M72.4,22.013V22.7H82.441V73.829H.686V22.7H40.657v-.685H0v52.5H83.13v-52.5Z" transform="translate(0 -8.019)" fill="#fff"/>
          <path id="Path_49" data-name="Path 49" d="M15.66,72.132,39.408,30.8H28.1L4.352,72.132Z" transform="translate(-1.585 -11.22)" fill="#fff"/>
          <path id="Path_50" data-name="Path 50" d="M61.823,0,26.812,60.911H38.145L73.129,0Z" transform="translate(-9.767 0)" fill="#fff"/>
          <path id="Path_51" data-name="Path 51" d="M60.615,66.437,90.076,15.171h-11.3L49.306,66.437Z" transform="translate(-17.96 -5.526)" fill="#fff"/>
          <path id="Path_52" data-name="Path 52" d="M.167,134.31v-5.951H6.053l0,5.953ZM0,128.181v6.3l6.229,0v-6.3Z" transform="translate(0 -46.692)" fill="#fff"/>
          <path id="Path_53" data-name="Path 53" d="M3.3,132.421l1.874,1.891.734-.741-1.875-1.9.364-.367v-.739l.263-.263v.612l.255.254.914-.928.249.248a1.671,1.671,0,0,0-.483-1.137.778.778,0,0,0-1.144-.03l-.883.894.221.222-.488.491-.486-.491.219-.222-.884-.894a.777.777,0,0,0-1.143.03,1.641,1.641,0,0,0-.471,1.137l.236-.248.916.928.254-.257v-.608l.261.263v.736l.366.369L.709,133.552l.734.739Z" transform="translate(-0.195 -47.022)" fill="#fff"/>
        </g>
      </g>
    </g>
  </g>
</svg>
