<svg width="123" height="41" viewBox="0 0 123 41" fill="none" xmlns="http://www.w3.org/2000/svg">
<path opacity="0.7" d="M11.1621 18.7633C11.8534 16.1837 14.505 13.5321 17.0845 12.8408L33.1668 8.53095C35.7463 7.83966 37.2771 9.3704 36.5858 11.95L32.2759 28.0322C31.5846 30.6118 28.9331 33.2633 26.3535 33.9546L10.2713 38.2645C7.69169 38.9558 6.16094 37.4251 6.85224 34.8455L11.1621 18.7633Z" fill="white"/>
<path d="M4.71546 12.3157C5.40675 9.73618 8.05832 7.08461 10.6379 6.39331L26.7201 2.08344C29.2997 1.39214 30.8305 2.92289 30.1392 5.50247L25.8293 21.5847C25.138 24.1643 22.4864 26.8158 19.9069 27.5071L3.82461 31.817C1.24504 32.5083 -0.285712 30.9775 0.405587 28.398L4.71546 12.3157Z" fill="white"/>
<path d="M51.7251 25.4009H56.9981V28.5082H47.6997V11.9829H51.7251V25.4009Z" fill="white"/>
<path d="M57.647 21.9169C57.647 20.5673 57.8981 19.3824 58.4003 18.3623C58.9181 17.3423 59.6165 16.5576 60.4953 16.0083C61.3742 15.459 62.355 15.1844 63.4379 15.1844C64.3638 15.1844 65.172 15.3727 65.8625 15.7494C66.5687 16.126 67.1102 16.6204 67.4868 17.2324V15.3727H71.5122V28.5082H67.4868V26.6485C67.0945 27.2606 66.5452 27.7549 65.839 28.1316C65.1485 28.5082 64.3403 28.6965 63.4143 28.6965C62.3472 28.6965 61.3742 28.4219 60.4953 27.8726C59.6165 27.3077 58.9181 26.5151 58.4003 25.4951C57.8981 24.4593 57.647 23.2666 57.647 21.9169ZM67.4868 21.9405C67.4868 20.9361 67.2043 20.1436 66.6394 19.5629C66.0901 18.9822 65.4153 18.6919 64.6149 18.6919C63.8145 18.6919 63.1319 18.9822 62.5669 19.5629C62.0176 20.1279 61.743 20.9125 61.743 21.9169C61.743 22.9213 62.0176 23.7217 62.5669 24.318C63.1319 24.8987 63.8145 25.189 64.6149 25.189C65.4153 25.189 66.0901 24.8987 66.6394 24.318C67.2043 23.7374 67.4868 22.9449 67.4868 21.9405Z" fill="white"/>
<path d="M87.3716 15.3727L79.1325 34.7464H74.8011L77.8142 28.061L72.4706 15.3727H76.9668L80.0035 23.5883L83.0166 15.3727H87.3716Z" fill="white"/>
<path d="M100.739 21.7286C100.739 22.1053 100.715 22.4976 100.668 22.9056H91.5579C91.6207 23.7217 91.8796 24.3494 92.3347 24.7888C92.8055 25.2126 93.3784 25.4244 94.0532 25.4244C95.0576 25.4244 95.7559 25.0007 96.1483 24.1533H100.433C100.213 25.0164 99.8127 25.7932 99.2321 26.4837C98.6671 27.1743 97.953 27.7157 97.0899 28.108C96.2267 28.5004 95.2616 28.6965 94.1944 28.6965C92.9076 28.6965 91.7619 28.4219 90.7575 27.8726C89.7531 27.3234 88.9685 26.5387 88.4035 25.5186C87.8385 24.4985 87.556 23.3058 87.556 21.9405C87.556 20.5751 87.8307 19.3824 88.38 18.3623C88.9449 17.3423 89.7296 16.5576 90.734 16.0083C91.7384 15.459 92.8919 15.1844 94.1944 15.1844C95.4656 15.1844 96.5955 15.4512 97.5842 15.9848C98.5729 16.5183 99.3419 17.2795 99.8912 18.2682C100.456 19.2569 100.739 20.4103 100.739 21.7286ZM96.6191 20.6693C96.6191 19.9788 96.3837 19.4295 95.9129 19.0215C95.4421 18.6134 94.8535 18.4094 94.1473 18.4094C93.4725 18.4094 92.8997 18.6056 92.4289 18.9979C91.9738 19.3903 91.6913 19.9474 91.5814 20.6693H96.6191Z" fill="white"/>
<path d="M106.417 17.562C106.888 16.8401 107.476 16.2751 108.182 15.8671C108.889 15.4433 109.673 15.2315 110.536 15.2315V19.4923H109.43C108.426 19.4923 107.672 19.712 107.17 20.1514C106.668 20.5751 106.417 21.3284 106.417 22.4113V28.5082H102.391V15.3727H106.417V17.562Z" fill="white"/>
<path d="M117.333 28.6965C116.188 28.6965 115.168 28.5004 114.273 28.108C113.378 27.7157 112.672 27.1821 112.154 26.5073C111.637 25.8168 111.346 25.0478 111.283 24.2003H115.262C115.309 24.6555 115.521 25.0242 115.897 25.3067C116.274 25.5892 116.737 25.7305 117.286 25.7305C117.788 25.7305 118.173 25.6363 118.44 25.448C118.722 25.244 118.863 24.985 118.863 24.6711C118.863 24.2945 118.667 24.0199 118.275 23.8472C117.883 23.6589 117.247 23.4549 116.368 23.2352C115.427 23.0155 114.642 22.7879 114.014 22.5525C113.386 22.3014 112.845 21.9169 112.39 21.399C111.935 20.8655 111.707 20.1514 111.707 19.2569C111.707 18.5036 111.911 17.8209 112.319 17.2089C112.743 16.5811 113.355 16.0868 114.155 15.7258C114.971 15.3649 115.937 15.1844 117.051 15.1844C118.699 15.1844 119.993 15.5924 120.935 16.4085C121.892 17.2246 122.442 18.3074 122.583 19.6571H118.863C118.801 19.2019 118.597 18.841 118.251 18.5742C117.922 18.3074 117.482 18.174 116.933 18.174C116.462 18.174 116.101 18.2682 115.85 18.4565C115.599 18.6291 115.474 18.8724 115.474 19.1862C115.474 19.5629 115.67 19.8454 116.062 20.0337C116.47 20.222 117.098 20.4103 117.945 20.5987C118.918 20.8498 119.711 21.1009 120.323 21.352C120.935 21.5874 121.469 21.9797 121.924 22.529C122.394 23.0626 122.638 23.7845 122.653 24.6947C122.653 25.4637 122.434 26.1542 121.994 26.7662C121.571 27.3626 120.951 27.8334 120.135 28.1787C119.334 28.5239 118.4 28.6965 117.333 28.6965Z" fill="white"/>
</svg>
