<svg xmlns="http://www.w3.org/2000/svg" width="111.057" height="73.263" viewBox="0 0 111.057 73.263">
  <g id="Group_26" data-name="Group 26" transform="translate(-590.616 -556.369)">
    <g id="layer1" transform="translate(-3817.111 -29.607)">
      <g id="g45263" transform="translate(4407.728 585.975)">
        <path id="path45125" d="M4758.7,580.216c4.034-1.981,6.033-1.721,6.078.287a73.225,73.225,0,0,1-.61,8.588c-1.5,13.643-4,24.791-4.186,38.8,6.588-17.057,12.11-28.912,19.228-43.513,2.259-4.653,3.7-3.783,5.558-4.608,7.226-3.218,7.495-1.246,6.554,2.689-3.506,14.576-12.479,60.469-13.851,67.536-.394,2.045-2.618,1.178-3.191.378-2.572-3.559-5.477-3.614-5.154-5.981,1.614-11.782,7.422-41.342,8.938-48.307-7.719,15.824-15.723,35.605-19.838,46.821-.87,2.382-2.457,2.207-3.442.464-1.39-2.448-4.088-3.7-4.537-6.591-1.407-9.2,1.614-26.728,2.035-37.818-4.2,12.115-11.259,35.636-14.352,46.263-1.272,4.4-5.521,3.68-4.392-.606,4.7-17.834,14.818-49.377,19.192-60.717,1.032-2.672,3.729-2.582,5.971-3.684" transform="translate(-4680.651 -577.994)" fill="#fff"/>
        <path id="path45127" d="M4449.524,577.146c-1.363-.332-5.315,1.8-7.745,2.223a2.832,2.832,0,0,0-1.766,1.533c-3.891,8.937-7.377,17.457-10.4,25.218-3.864.66-8.381,1.529-13.437,2.664,3.621-9.29,7.279-18.452,10.846-27.264,1.757-4.339-2.869-4.751-4.662-.359-2.331,5.71-6.7,16.409-11.528,28.879-3.55.87-7.314,1.865-11.25,3-2.86.826-2.976,1.588-1.738,3.3.681.955,2.088.859,2.733,1.539,1.667,1.763,2.681,3.872,5.666,4.192-2.663,7.122-5.325,14.467-7.736,21.538-1.515,4.439,2.8,5.347,4.456.65,2.671-7.572,5.485-15.236,8.381-22.877,2.412-.56,8.248-1.817,13.635-2.986-4.276,11.72-7.091,20.621-8.157,24.953a2.022,2.022,0,0,0,.314,1.636c1.443,2.1,2.814,2.186,4.67,4.783a1.564,1.564,0,0,0,2.762-.654c3.961-11.968,8.041-23.2,11.841-33.265,1.578-.345,4.419-1.031,6.158-3.626,3.093-4.606,3.98-3.672,4.725-5.072.932-1.758.313-3.408-2.985-3,0,0-1.246.089-3.55.351,3.657-9.417,6.857-17.4,9.161-23.491.789-2.061.888-3.567-.394-3.872" transform="translate(-4397.097 -577.112)" fill="#fff"/>
        <path id="path45129" d="M4650.436,862.756c.852,2.152,3.514,1.5,2.5-1.1-1.03-2.646-3.595-10.613-4.268-13.179-.914-3.458,3.049-2.513,1.04-.252-1.721,1.944-2.868,2.723-6.05,6.42-3.075,3.569-2.241,8.2,1.048,9.222,3.711,1.155,6.984-2.935,9.009-5.935,1.963-2.905.063-4.609-1.918-2.892a37.191,37.191,0,0,1-4.23,3.715c-1.211.736-2.161-.055-.547-2.276,1.873-2.572,3.971-4.727,5.53-7.157,3.183-4.953-3.11-7.808-5.817-4.591-1.453,1.715-1.085,3.4-.691,4.843.638,2.314,3,9.7,4.394,13.178" transform="translate(-4603.406 -801.644)" fill="#fff"/>
      </g>
    </g>
  </g>
</svg>
