<svg xmlns="http://www.w3.org/2000/svg" xmlns:xlink="http://www.w3.org/1999/xlink" width="102.161" height="79.925" viewBox="0 0 102.161 79.925">
  <defs>
    <clipPath id="clip-path">
      <rect id="Rectangle_8" data-name="Rectangle 8" width="102.161" height="79.925" fill="#fff"/>
    </clipPath>
  </defs>
  <g id="Group_27" data-name="Group 27" transform="translate(-800.808 -553)">
    <g id="Group_15" data-name="Group 15" transform="translate(800.808 553)">
      <g id="Group_14" data-name="Group 14" transform="translate(0 0)" clip-path="url(#clip-path)">
        <path id="Path_80" data-name="Path 80" d="M71.007,34.63A17.316,17.316,0,1,0,53.7,17.315a17.31,17.31,0,0,0,17.3,17.316" transform="translate(-19.465 0)" fill="#fff" fill-rule="evenodd"/>
        <path id="Path_81" data-name="Path 81" d="M64.791,48.6A22.791,22.791,0,0,1,34.282,51C15.39,52.98,1.34,55.794,1.34,55.794v7.654l100.121-.01.01-15.783s-17.083-.107-36.68.943" transform="translate(-0.486 -17.271)" fill="#fff" fill-rule="evenodd"/>
        <path id="Path_82" data-name="Path 82" d="M21.752,109.231a26.459,26.459,0,0,1-6.847,1.03C6.632,110.261,0,105.772,0,96.612,0,88,6.917,83.7,14.905,83.7a32.123,32.123,0,0,1,6.775.812v6.769a15.539,15.539,0,0,0-4.777-.958c-4.066,0-7.132,2.245-7.132,6.44,0,4.414,2.851,6.657,6.811,6.657a15.155,15.155,0,0,0,5.17-.993Z" transform="translate(0 -30.336)" fill="#fff" fill-rule="evenodd"/>
        <path id="Path_83" data-name="Path 83" d="M57.616,91.165a21.914,21.914,0,0,0-7.382-1.287c-1.5,0-4.1.039-4.1,1.693,0,3.348,13.087.183,13.087,10.079,0,6.881-6.6,8.611-12.125,8.611a41.932,41.932,0,0,1-10.27-1.216v-6.657a22.531,22.531,0,0,0,8.558,1.691c2.247,0,4.279-.477,4.279-1.764,0-3.459-13.086-.332-13.086-10.3,0-7.063,7.131-8.315,12.8-8.315a41.225,41.225,0,0,1,8.238.884Z" transform="translate(-13.258 -30.336)" fill="#fff" fill-rule="evenodd"/>
        <path id="Path_84" data-name="Path 84" d="M88.184,110.261c-8.7,0-13.8-4.525-13.8-13.281,0-8.609,5.1-13.283,13.8-13.283S102.09,88.371,102.09,96.98c0,8.756-5.206,13.281-13.906,13.281m0-6.182c3.779,0,3.887-4.342,3.921-7.1-.034-2.391-.284-7.1-3.921-7.1-3.53,0-3.815,4.71-3.815,7.1,0,2.758.391,7.1,3.815,7.1" transform="translate(-26.961 -30.336)" fill="#fff" fill-rule="evenodd"/>
        <path id="Path_85" data-name="Path 85" d="M121.538,84.391H137.19c4.316,0,8.558,1.436,8.558,6.328,0,3.533-1.818,5.407-5.135,6.292v.073a6.245,6.245,0,0,1,5.6,5.849c0,6.475-5.064,7.136-10.235,7.136h-14.44Zm8.986,20.382h2.5c1.747,0,3.637-.662,3.637-2.651,0-2.207-1.783-2.611-3.566-2.611h-2.567Zm0-10.56h2.388c1.677,0,3.5-.514,3.5-2.465,0-1.913-1.569-2.5-3.282-2.5h-2.6Z" transform="translate(-44.052 -30.588)" fill="#fff" fill-rule="evenodd"/>
        <path id="Path_86" data-name="Path 86" d="M7.77,79.33A12.456,12.456,0,0,0,24.448,78.02l-.726-.554a8.7,8.7,0,0,1-6.311,2.36,9.586,9.586,0,0,1-6.878-3.033Z" transform="translate(-2.816 -27.834)" fill="#fff" fill-rule="evenodd"/>
      </g>
    </g>
  </g>
</svg>
