<svg xmlns="http://www.w3.org/2000/svg" width="230.25" height="49.117" viewBox="0 0 230.25 49.117">
  <g id="Group_28" data-name="Group 28" transform="translate(-972.585 -568)">
    <g id="ST-Nicolaus-logo-hlavicka" transform="translate(972.535 568)">
      <rect id="Rectangle_9" data-name="Rectangle 9" width="204.705" height="0.813" transform="translate(9.769 48.304)" fill="#fff"/>
      <path id="Path_87" data-name="Path 87" d="M487.472,287.225a2.421,2.421,0,0,0-1.806-.7,2.457,2.457,0,0,0-1.806,4.209,2.4,2.4,0,0,0,1.806.7,2.348,2.348,0,0,0,1.716-.7,2.439,2.439,0,0,0,0-3.5Zm-.307,3.2a1.933,1.933,0,0,1-1.409.6A2.005,2.005,0,0,1,483.732,289a1.807,1.807,0,0,1,.578-1.427,1.987,1.987,0,0,1,2.854,0,2.078,2.078,0,0,1,.6,1.427,2.006,2.006,0,0,1-.6,1.427Z" transform="translate(-257.824 -282.637)" fill="#fff"/>
      <path id="Path_88" data-name="Path 88" d="M486.168,289.677v-.325a.7.7,0,0,0-.253-.6.9.9,0,0,0-.4-.163.885.885,0,0,0,.488-.181.741.741,0,0,0-.2-1.138,1.066,1.066,0,0,0-.524-.145H484v2.728h.7v-.976h.524a.325.325,0,0,1,.217.217.706.706,0,0,1,0,.325v.379h.686A.162.162,0,0,0,486.168,289.677Zm-.831-1.391a.56.56,0,0,1-.379.108h-.271v-.777h.181a.976.976,0,0,1,.415,0,.289.289,0,0,1,.217.289c-.018.217-.054.325-.163.379Z" transform="translate(-257.116 -282.144)" fill="#fff"/>
      <path id="Path_89" data-name="Path 89" d="M488.091,302.556a13.62,13.62,0,0,0-4.137-2.872h-.181c-1.283-.578-2.656-1.03-3.9-1.7a5.8,5.8,0,0,1-1.806-1.409,3.613,3.613,0,0,1,1.915-5.835,5.237,5.237,0,0,1,2.077,0,5.8,5.8,0,0,1,1.987.7,6.5,6.5,0,0,1,1.283.939h0a12.155,12.155,0,0,1,1.608,2.023,10.623,10.623,0,0,0,1.7-4.119,7.938,7.938,0,0,0-.614-.524,7.117,7.117,0,0,0-1.806-1.048,13.007,13.007,0,0,0-3.324-.939,13.728,13.728,0,0,0-3.107,0,12.671,12.671,0,0,0-1.608.307,8.743,8.743,0,0,0-3.848,2.1,7.234,7.234,0,0,0-.777.885,7.878,7.878,0,0,0-.813,1.481,7.605,7.605,0,0,0,.686,7.515c1.59,2.294,4.5,3.45,6.955,4.516s5.058,3.053,4.661,6.07a3.775,3.775,0,0,1-.47,1.445,5.419,5.419,0,0,1-6.738,2.041,10.288,10.288,0,0,1-1.9-.939,7.823,7.823,0,0,1-1.806-1.716l-.723-.885a22.435,22.435,0,0,0-1.12,4.5,3.029,3.029,0,0,0,.379.325c2.312,1.806,6.539,2.113,7.84,2.15h.723a12.153,12.153,0,0,0,2.692-.452,8.8,8.8,0,0,0,3.342-1.806l.361-.343c3.468-3.613,4.191-8.49.47-12.193Z" transform="translate(-266.753 -281.692)" fill="#fff"/>
      <path id="Path_90" data-name="Path 90" d="M491.234,304.59a10.512,10.512,0,0,0-1.807-2.312h0a14.776,14.776,0,0,0-4.516-3.125h-.2c-1.337-.578-2.692-1.03-3.775-1.644a4.244,4.244,0,0,1-1.373-1.084h0a2.313,2.313,0,0,1-.163-.867,2.385,2.385,0,0,1,1.806-2.312,3.849,3.849,0,0,1,1.409,0,5.129,5.129,0,0,1,1.806.6,6.555,6.555,0,0,1,1.048.777,19.169,19.169,0,0,1,2.312,3.306,11.994,11.994,0,0,0,3.107-6.666l-.416-.668h0v-.253l-.434-.415c-.235-.235-.47-.434-.7-.632a7.227,7.227,0,0,0-1.319-.849l-.506-.253h-.163a14.848,14.848,0,0,0-3.613-1.012,17.312,17.312,0,0,0-1.915-.127,13.914,13.914,0,0,0-1.5,0,11.6,11.6,0,0,0-1.806.343,9.9,9.9,0,0,0-4.39,2.384,7.352,7.352,0,0,0-.921,1.066,8.505,8.505,0,0,0-.957,1.806,9.611,9.611,0,0,0-.759,3.613h0a8.635,8.635,0,0,0,1.572,4.95c.126.163.235.325.361.47l.108.163a15.211,15.211,0,0,0,6.792,4.66l.65.289a8.76,8.76,0,0,1,2.854,1.806l.217.235a3.343,3.343,0,0,1,.47,1.626,3.72,3.72,0,0,1-.343,1.427,3.812,3.812,0,0,1-3.432,1.806h0a5.257,5.257,0,0,1-1.806-.325,7.874,7.874,0,0,1-1.662-.795,10.55,10.55,0,0,1-2.439-2.457l-1.337-1.626-.686,2.114a29.982,29.982,0,0,0-1.048,3.938,12.607,12.607,0,0,1-.181,1.427l.488.452v.181a10.6,10.6,0,0,0,.921.831,16.077,16.077,0,0,0,12.3,1.806,9.789,9.789,0,0,0,3.811-2.1l.325-.325h0a10.838,10.838,0,0,0,3.288-7.406,8.779,8.779,0,0,0-1.481-4.823Zm-7.226,4.245ZM471.96,315.88a24.755,24.755,0,0,1,1.192-5.058s.379-1.174.433-1.373a16.258,16.258,0,0,0,3.36,3.613,9.848,9.848,0,0,0,1.806.849,5.854,5.854,0,0,0,1.987.361h0a4.263,4.263,0,0,0,3.793-2.059,3.739,3.739,0,0,0,.416-1.662,4.029,4.029,0,0,0-1.265-2.8,9.538,9.538,0,0,0-2.981-1.933c-2.421-1.066-5.419-2.24-7.226-4.805a8.291,8.291,0,0,1-1.517-4.661h0a9.754,9.754,0,0,1,.741-3.486,9.13,9.13,0,0,1,.921-1.644,6.467,6.467,0,0,1,.849-.993,9.466,9.466,0,0,1,4.209-2.294,11.051,11.051,0,0,1,1.716-.325,13.285,13.285,0,0,1,1.463-.09,16.362,16.362,0,0,1,1.806.126,14.452,14.452,0,0,1,3.468.976h.235l.488.235a7.225,7.225,0,0,1,1.228.813,7.027,7.027,0,0,1,.686.6l.289.271a10.676,10.676,0,0,1-2.6,5.762l-.6-.939a11.4,11.4,0,0,0-1.481-1.806h0a5.545,5.545,0,0,0-1.12-.813,4.986,4.986,0,0,0-1.951-.65,3.955,3.955,0,0,0-1.59,0,2.782,2.782,0,0,0-1.463,4.534h0a5.312,5.312,0,0,0,1.5,1.21c1.156.614,2.511,1.066,3.83,1.644l.181.09a14.452,14.452,0,0,1,4.39,3.017h0a8.6,8.6,0,0,1,2.71,6.142h0a10.441,10.441,0,0,1-3.2,7.153l-.4.4a9.862,9.862,0,0,1-3.613,1.987c-3.757,1.228-9.755,0-11.922-1.806A7.891,7.891,0,0,1,471.96,315.88Z" transform="translate(-267.205 -282.226)" fill="#fff"/>
      <path id="Path_91" data-name="Path 91" d="M388.775,287.911H375.534c-.885,0-3.288-.271-3.288-.271l-1.626,4.191a6.575,6.575,0,0,1,4.317-.993h4.227v22.255a8.019,8.019,0,0,1-.741,3.884h6.341V290.837h4.606a6.576,6.576,0,0,1,4.317.993l-1.608-4.191S389.678,287.911,388.775,287.911Z" transform="translate(-348.55 -281.733)" fill="#fff"/>
      <path id="Path_92" data-name="Path 92" d="M394.17,287.615l-.271-.7h-.939l-1.283.144c-.686,0-1.517.126-1.806.126H376.594a10.177,10.177,0,0,1-1.806-.126l-1.048-.108h-1.192l-3.2,8.273.921-.524-.415,1.1,2.908-1.662a4.715,4.715,0,0,1,2.908-.831h3.378v20.413h0a6.665,6.665,0,0,1-.578,3.27l-1.084,1.806h.867l-.361.614h9.61V293.269h4.227a4.787,4.787,0,0,1,2.926.831l2.908,1.662-3.161-8.165Zm-16.113,30.709.7-1.192a7.227,7.227,0,0,0,.632-3.486h0V292.221h-4.245a5.238,5.238,0,0,0-3.107.9l-1.933,1.084,2.637-6.81h.849l1.048.108c.7,0,1.481.126,1.9.126h13.313a9.784,9.784,0,0,0,1.806-.126h1.9l2.637,6.81-1.915-1.084a5.257,5.257,0,0,0-3.107-.9h-4.643v26.139Z" transform="translate(-349.574 -282.322)" fill="#fff"/>
      <path id="Path_93" data-name="Path 93" d="M445.8,313.835H442.19V287.66h-3c-2.421,0-2.836,1.445-2.836,2.4v23.014a7.823,7.823,0,0,1-.795,3.884H450.1l1.5-4.046a14.992,14.992,0,0,1-5.8.921Z" transform="translate(-296.18 -281.717)" fill="#fff"/>
      <path id="Path_94" data-name="Path 94" d="M454.347,311.986l.434-1.174-2.872,1.572h0a7.894,7.894,0,0,1-2.565.632,21.658,21.658,0,0,1-2.294.126h-2.33V287.653h-.4V287H440.04a4.1,4.1,0,0,0-3.215,1.283,3.613,3.613,0,0,0-.795,2.348v23.014a6.811,6.811,0,0,1-.614,3.27l-1.066,1.806h.849l-.361.614H452.27l2.89-7.8Zm-19.238,6.3.668-1.192a6.829,6.829,0,0,0,.686-3.486v-23a3.2,3.2,0,0,1,.7-2.077,3.612,3.612,0,0,1,2.872-1.12h3.848v26.157h3.161a19.664,19.664,0,0,0,2.348-.144,8.238,8.238,0,0,0,2.728-.687h0l1.806-1.012-2.421,6.539Z" transform="translate(-297.156 -282.252)" fill="#fff"/>
      <path id="Path_95" data-name="Path 95" d="M372.627,298.921h-.2c-1.481-.65-3.071-1.192-4.48-1.951a6.863,6.863,0,0,1-2.023-1.626,4.154,4.154,0,0,1-1.012-2.71,4.1,4.1,0,0,1,3.342-4.028,6.539,6.539,0,0,1,2.728,0,7.224,7.224,0,0,1,1.806.723,7.675,7.675,0,0,1,1.463,1.084,11.506,11.506,0,0,1,1.933,2.457,16.648,16.648,0,0,0,1.174-2.348c.867-2.005.614-2.33.614-2.33-.434-1.066-2.6-1.951-2.6-1.951h0a14.94,14.94,0,0,0-3.812-1.084,15.785,15.785,0,0,0-3.613,0,12.271,12.271,0,0,0-1.806.343,10.171,10.171,0,0,0-4.444,2.4,9.51,9.51,0,0,0-.885,1.03,7.928,7.928,0,0,0-.939,1.716,8.689,8.689,0,0,0,.795,8.635c1.806,2.637,5.166,3.974,7.984,5.184s5.835,3.5,5.419,7.009a4.3,4.3,0,0,1-.921,2.168,6.377,6.377,0,0,1-7.37,1.807,11,11,0,0,1-5.148-4.083c-.452,1.427-1.1,3.613-1.445,5.148a16.474,16.474,0,0,0,13.494,2.312,9.7,9.7,0,0,0,3.83-2.1l.415-.415a10.206,10.206,0,0,0,.506-14.108,13.042,13.042,0,0,0-4.805-3.288Z" transform="translate(-357.855 -283.82)" fill="#fff"/>
      <path id="Path_96" data-name="Path 96" d="M380.306,303.97a12.439,12.439,0,0,0-1.445-2.023,14.072,14.072,0,0,0-5.221-3.613l-.2-.108c-1.554-.668-3.107-1.192-4.39-1.9a5.24,5.24,0,0,1-1.644-1.3h0v-.09a3.07,3.07,0,0,1-.235-1.156,2.981,2.981,0,0,1,2.294-2.854,4.481,4.481,0,0,1,1.806,0,6.2,6.2,0,0,1,2.041.686,6.361,6.361,0,0,1,1.246.921,10.7,10.7,0,0,1,.957,1.066l.289.488,1.048,1.806.4.668v-.09l1.03-1.806a19.374,19.374,0,0,0,1.264-2.529,7.315,7.315,0,0,0,.723-2.583,1.679,1.679,0,0,0-.144-.7,3.137,3.137,0,0,0-.4-.632h0a3.613,3.613,0,0,0-1.283-1.445,11.546,11.546,0,0,0-1.355-.831l-.6-.271a16.659,16.659,0,0,0-4.1-1.156,18.069,18.069,0,0,0-2.186-.144,13.4,13.4,0,0,0-1.7.108,12.651,12.651,0,0,0-2.044.38,11.128,11.128,0,0,0-4.968,2.71,8.127,8.127,0,0,0-1.03,1.192,9.793,9.793,0,0,0-1.084,1.951,10.929,10.929,0,0,0-.867,4.173h0a9.755,9.755,0,0,0,1.806,5.6,4.63,4.63,0,0,0,.361.47.849.849,0,0,0,.108.163,17.324,17.324,0,0,0,7.768,5.311l.723.307a10.838,10.838,0,0,1,3.324,2.15,2.941,2.941,0,0,1,.325.361h0a3.83,3.83,0,0,1,.56,1.951,3.613,3.613,0,0,1-1.03,2.511,4.7,4.7,0,0,1-3.45,1.427,7.441,7.441,0,0,1-2.258-.4,9.647,9.647,0,0,1-4.516-3.613l-1.409-2.041-.759,2.366c-.488,1.463-1.12,3.721-1.481,5.257l-.163.723.506.433v.2l.542.47a14.452,14.452,0,0,0,7.75,3,16.84,16.84,0,0,0,4.968,0,15.007,15.007,0,0,0,1.806-.434,11.236,11.236,0,0,0,4.317-2.348,5.425,5.425,0,0,0,.452-.47,11.381,11.381,0,0,0,3.45-8.147,11.507,11.507,0,0,0-1.806-6.232Zm-21.37,12.916c.343-1.517.993-3.757,1.463-5.221l.488-1.517.9,1.319a10.1,10.1,0,0,0,4.733,3.775,7.822,7.822,0,0,0,2.4.415,5.058,5.058,0,0,0,3.739-1.535,3.613,3.613,0,0,0,1.12-2.222,4.053,4.053,0,0,0,0-.614,4.624,4.624,0,0,0-1.5-3.306,11.525,11.525,0,0,0-3.45-2.258c-2.8-1.21-6.286-2.565-8.328-5.419a9.194,9.194,0,0,1-1.716-5.419h0a10.5,10.5,0,0,1,.831-4.01,9.444,9.444,0,0,1,1.048-1.806,8.394,8.394,0,0,1,.957-1.138,10.839,10.839,0,0,1,4.787-2.6,12.234,12.234,0,0,1,1.969-.379h1.662a17.061,17.061,0,0,1,2.132.126,15.9,15.9,0,0,1,3.992,1.138,4.814,4.814,0,0,1,.56.253,8.16,8.16,0,0,1,1.3.777,3.414,3.414,0,0,1,1.138,1.283,1.084,1.084,0,0,1,.126.542,6.989,6.989,0,0,1-.7,2.439,19.386,19.386,0,0,1-1.228,2.457l-.686,1.174-.686-1.174a10.837,10.837,0,0,0-1.806-2.294,6.319,6.319,0,0,0-1.319-.957,6.194,6.194,0,0,0-1.806-.7,5.528,5.528,0,0,0-2.457,0,3.288,3.288,0,0,0-2.366,3.179,3.36,3.36,0,0,0,.813,2.186h0a5.763,5.763,0,0,0,1.806,1.427c1.337.741,2.908,1.265,4.426,1.933h.217a13.513,13.513,0,0,1,5.04,3.468,10.838,10.838,0,0,1,2.8,7.316h0a10.838,10.838,0,0,1-3.306,7.84l-.452.452a10.838,10.838,0,0,1-4.155,2.276,14.85,14.85,0,0,1-5.8.524,15.084,15.084,0,0,1-8.418-3l-.361-.307Z" transform="translate(-358.38 -284.37)" fill="#fff"/>
      <path id="Path_97" data-name="Path 97" d="M421.342,290.64a5.708,5.708,0,0,1,4.733,3.613l1.572-4.841a8.869,8.869,0,0,0-6.033-1.915c-4.083,0-11.543,2.8-11.543,14.921,0,11.272,6.323,15.011,10.839,15.011,5.076,0,6.593-2.023,6.593-2.023l-1.3-4.588a6.648,6.648,0,0,1-5.112,3.215c-3.234,0-5.058-3.866-5.058-11.742S418.036,290.64,421.342,290.64Z" transform="translate(-316.736 -281.861)" fill="#fff"/>
      <path id="Path_98" data-name="Path 98" d="M427.343,309.348l-.289-.957s-1.012,1.806-1.445,2.457a7.533,7.533,0,0,1-1.355,1.5,4.245,4.245,0,0,1-2.655,1.03h0a2.348,2.348,0,0,1-2.005-1.12c0-.126-.126-.253-.181-.4a21.678,21.678,0,0,1-1.228-8.346,20.087,20.087,0,0,1,1.337-8.255c.795-1.535,1.608-2.168,2.872-2.2a3.4,3.4,0,0,1,2.385,1.03,3.775,3.775,0,0,1,.9,1.409l1.156,2.854v-.289l.343.849,2.8-8.671-.47-.452v-.217l-.542-.524a10.044,10.044,0,0,0-6.883-2.258h0a12.229,12.229,0,0,0-8.111,3.252c-2.637,2.457-4.624,6.575-4.624,12.862h0a18.787,18.787,0,0,0,3.378,11.742,10.937,10.937,0,0,0,1.138,1.427,11.092,11.092,0,0,0,8.021,3.613c2.854,0,6.124-.488,7.912-2.981-.271-.885-2.4-7.677-2.4-7.677ZM409.875,302.9c0-6.2,1.951-10.17,4.5-12.555a11.8,11.8,0,0,1,7.84-3.125h0a9.682,9.682,0,0,1,6.575,2.132l.361.343-2.348,7.37s-.831-2.1-1.048-2.475a10.288,10.288,0,0,0-.759-1.084,3.992,3.992,0,0,0-3.017-1.5h0c-1.3,0-2.33.668-3.215,2.421a20.014,20.014,0,0,0-1.373,8.382v.108a22.274,22.274,0,0,0,1.246,8.454c.813,1.806,1.806,2.421,3.017,2.439h.108a4.715,4.715,0,0,0,2.818-1.12,8.27,8.27,0,0,0,1.445-1.59,18.412,18.412,0,0,0,.957-1.644l2.1,6.63c-.813,1.283-3.306,2.619-7.479,2.637a10.586,10.586,0,0,1-7.732-3.522c-2.294-2.511-3.938-6.467-3.938-12.248h0Z" transform="translate(-317.335 -282.433)" fill="#fff"/>
      <path id="Path_99" data-name="Path 99" d="M457.089,287.69c-.56,0-1.915.217-2.547,2.258s-6.575,20.521-8.219,25.687a7.923,7.923,0,0,1-.632,1.3h4.624l2.077-7.37h7.786l1.806,7.37H467.6l-7.876-29.156Zm-3.848,18.9,3.324-11.814,2.89,11.814Z" transform="translate(-288.011 -281.693)" fill="#fff"/>
      <path id="Path_100" data-name="Path 100" d="M462.069,287.823h-.235l-.181-.668-3.613-.144h-.108a3.992,3.992,0,0,0-3.613,3.125c-.542,1.806-6.557,20.521-8.219,25.669a8.186,8.186,0,0,1-.506,1.066l-1.084,1.806h.885l-.361.614h7.587l2.077-7.37h5.636L462,318.677h.307l.163.614h8.093l-8.472-31.36Zm-1.517,23.086h-6.575l-2.077,7.37h-6.5l.686-1.192a6.664,6.664,0,0,0,.56-1.138c1.662-5.166,7.677-23.935,8.219-25.687a3.613,3.613,0,0,1,3.125-2.818l3.414.126,8.31,30.709h-7.226Z" transform="translate(-288.962 -282.241)" fill="#fff"/>
      <path id="Path_101" data-name="Path 101" d="M382.106,302.26a1.7,1.7,0,1,0,1.68,1.716,1.7,1.7,0,0,0-1.68-1.716Z" transform="translate(-340.671 -269.943)" fill="#fff"/>
      <path id="Path_102" data-name="Path 102" d="M383,301.6h-.361a2.926,2.926,0,0,0-2.926,2.908h0a2.89,2.89,0,0,0,.813,2.023h0a2.945,2.945,0,0,0,2.529,1.536h0a2.872,2.872,0,0,0,2.872-2.854h0a2.764,2.764,0,0,0-.65-1.806A2.89,2.89,0,0,0,383,301.6Zm-2.764,2.872A2.493,2.493,0,0,1,382.691,302h.09a2.493,2.493,0,0,1,2.439,2.475h0a2.511,2.511,0,0,1-2.475,2.475h0a2.511,2.511,0,0,1-2.511-2.457Z" transform="translate(-341.219 -270.475)" fill="#fff"/>
      <path id="Path_103" data-name="Path 103" d="M404.407,290.081v23.014a7.875,7.875,0,0,1-.777,3.884h6.63V287.66h-3C404.822,287.66,404.407,289.105,404.407,290.081Z" transform="translate(-321.929 -281.717)" fill="#fff"/>
      <path id="Path_104" data-name="Path 104" d="M412.451,287h-4.263a4.082,4.082,0,0,0-3.215,1.283h0a3.613,3.613,0,0,0-.813,2.348v23.014a6.593,6.593,0,0,1-.614,3.27l-1.066,1.806h.849l-.343.614h9.881V287.653h-.415Zm-9.213,31.324.686-1.192a7.1,7.1,0,0,0,.668-3.486V290.616a3.161,3.161,0,0,1,.7-2.077,3.613,3.613,0,0,1,2.89-1.1h3.83v30.872Z" transform="translate(-322.857 -282.252)" fill="#fff"/>
      <path id="Path_105" data-name="Path 105" d="M473.994,291.5v16.131c0,3.432-.217,6.774-4.624,6.774s-4.209-2.8-4.209-6.232v-20.5H462.9s-3.432,0-3.432,3.2v18.787c0,4.39,3.613,7.912,9.213,7.912a9.5,9.5,0,0,0,7.605-3.017,11.633,11.633,0,0,0,1.626-6.955V287.724h-4.7a10.079,10.079,0,0,1,.777,3.776Z" transform="translate(-276.898 -281.709)" fill="#fff"/>
      <path id="Path_106" data-name="Path 106" d="M479.626,287h-8.021l1.03,1.806a5.892,5.892,0,0,1,.506,1.951c0,.343.108,1.084.108,1.156v16.439a9.683,9.683,0,0,1-.542,3.9c-.47.867-.921,1.337-2.872,1.409a5.15,5.15,0,0,1-1.806-.307c-.47-.235-.56-.849-.614-1.174a15.1,15.1,0,0,1,0-2.005V287.668H467V287h-3.468a5.618,5.618,0,0,0-2.24.524,4.1,4.1,0,0,0-2.421,3.811v18.877h0a8.671,8.671,0,0,0,1.806,5.419h0a8.129,8.129,0,0,0,1.553,1.806,11.218,11.218,0,0,0,7.479,2.619h0a10.676,10.676,0,0,0,8.508-3.45,12.41,12.41,0,0,0,1.9-7.713V287.723h-.4Zm-20.521,4.317a3.613,3.613,0,0,1,2.168-3.414,5.15,5.15,0,0,1,2.077-.488h3.017v22.418a6.81,6.81,0,0,0,.488,3.179c.379.632,1.048,1.12,2.926,1.138s2.764-.668,3.27-1.644a10.386,10.386,0,0,0,.578-4.1c0-.09,0-16.565,0-16.565a7.22,7.22,0,0,0-.09-1.084,6.339,6.339,0,0,0-.56-2.114h0l-.668-1.174h6.846v20.666a12.247,12.247,0,0,1-1.806,7.461,10.206,10.206,0,0,1-8.183,3.288h0a10.694,10.694,0,0,1-7.226-2.511,8.147,8.147,0,0,1-2.8-6.16Z" transform="translate(-277.382 -282.249)" fill="#fff"/>
      <path id="Path_107" data-name="Path 107" d="M406.731,285.265v23.321l-12.645-23.393H392.28a3.2,3.2,0,0,0-3.613,3.45v26.446a8.091,8.091,0,0,1-.777,3.884h4.733V295.489l11.362,21.334a6.757,6.757,0,0,1,.831,2.186h5.835v-29.86a8.2,8.2,0,0,1,.759-3.884Z" transform="translate(-334.622 -283.73)" fill="#fff"/>
      <path id="Path_108" data-name="Path 108" d="M414.39,284.608h-6.756a1.21,1.21,0,0,0-.867.361,1.192,1.192,0,0,0-.361.867v18.5l-10.694-19.871h-2.547a4.679,4.679,0,0,0-3.884,1.7,4.86,4.86,0,0,0-.9,2.981v26.446a7.225,7.225,0,0,1-.614,3.306l-.994,1.806h.831l-.343.614h7.93V301.7l8.653,16.258a6.181,6.181,0,0,1,.7,1.806l.127,1.084h.4v.614h8.075V290.371a7.227,7.227,0,0,1,.614-3.324l.939-1.806h-.741Zm-9.339,35.731v-.7a6.686,6.686,0,0,0-.759-1.9c-.994-1.806-6.5-12.23-9.881-18.552v21.153h-6.828l.632-1.174a7.568,7.568,0,0,0,.668-3.5V289.214a4.516,4.516,0,0,1,.813-2.728,4.281,4.281,0,0,1,3.613-1.517h2.276l11.4,21.063v-20.2a.8.8,0,0,1,.795-.795h6.033L413.2,286.2a7.531,7.531,0,0,0-.668,3.523v30.619Z" transform="translate(-335.526 -284.301)" fill="#fff"/>
      <path id="Path_109" data-name="Path 109" d="M432.06,287.53c-6.684,0-11.109,6.666-11.109,14.993s4.426,15.03,11.109,15.03,11.128-6.7,11.128-15.03S438.761,287.53,432.06,287.53Zm0,26.862c-3.613,0-5.148-5.311-5.148-11.832s1.463-11.832,5.148-11.832,5.166,5.293,5.166,11.832S435.763,314.392,432.06,314.392Z" transform="translate(-307.962 -281.822)" fill="#fff"/>
      <path id="Path_110" data-name="Path 110" d="M442.439,292.974h0a14.289,14.289,0,0,0-.795-1.228,11,11,0,0,0-9.032-4.9h0a11.056,11.056,0,0,0-9.032,4.9,21.28,21.28,0,0,0,0,22.671l.325.415h0l.144.217a10.838,10.838,0,0,0,9.032,4.9h0a10.838,10.838,0,0,0,9.032-4.9,19.546,19.546,0,0,0,3.27-11.326,19.871,19.871,0,0,0-2.944-10.748Zm-21.767,10.1a19.04,19.04,0,0,1,3.2-11.073,10.568,10.568,0,0,1,8.689-4.715h0A10.585,10.585,0,0,1,441.247,292a20.81,20.81,0,0,1,0,22.165,10.622,10.622,0,0,1-8.689,4.733h0a10.568,10.568,0,0,1-8.689-4.715,19.112,19.112,0,0,1-3.2-11.109Z" transform="translate(-308.478 -282.37)" fill="#fff"/>
      <path id="Path_111" data-name="Path 111" d="M427.2,311.253a2.692,2.692,0,0,0,1.9.741,2.728,2.728,0,0,0,1.807-.741,6.071,6.071,0,0,0,1.409-2.276h0a23.72,23.72,0,0,0,1.156-8.093v-.307c0-4.715-.9-8.671-2.565-10.116a2.728,2.728,0,0,0-1.807-.741,2.691,2.691,0,0,0-1.9.741,5.942,5.942,0,0,0-1.427,2.276,23.487,23.487,0,0,0-1.138,8.057v.271C424.654,305.834,425.539,309.79,427.2,311.253Zm5.835-10.676v.307a23.681,23.681,0,0,1-1.1,7.894,5.709,5.709,0,0,1-1.282,2.077,2.276,2.276,0,0,1-3.107,0,3.306,3.306,0,0,1-.7-1.1,22.236,22.236,0,0,1-1.265-8.31,23.375,23.375,0,0,1,1.12-7.948,5.526,5.526,0,0,1,1.282-2.077,2.294,2.294,0,0,1,3.125,0l.163.144a18.3,18.3,0,0,1,1.77,9.014Z" transform="translate(-305 -280.056)" fill="#fff"/>
      <path id="Path_112" data-name="Path 112" d="M450.46,301.242h4.173L452.7,293.33Zm1.174-.433,1.3-4.661,1.138,4.661Z" transform="translate(-284.164 -277.144)" fill="#fff"/>
    </g>
  </g>
</svg>
