<svg xmlns="http://www.w3.org/2000/svg" xmlns:xlink="http://www.w3.org/1999/xlink" width="200.33" height="35.311" viewBox="0 0 200.33 35.311">
  <defs>
    <clipPath id="clip-path">
      <rect id="Rectangle_10" data-name="Rectangle 10" width="200.33" height="35.311" fill="#fff"/>
    </clipPath>
  </defs>
  <g id="Group_31" data-name="Group 31" transform="translate(0 0)">
    <path id="Path_113" data-name="Path 113" d="M229.555,39.045,219.423,29.019v6.062l4.063,3.964Z" transform="translate(-69.816 -9.234)" fill="#fff"/>
    <g id="Group_30" data-name="Group 30" transform="translate(0 0)">
      <g id="Group_29" data-name="Group 29" clip-path="url(#clip-path)">
        <path id="Path_114" data-name="Path 114" d="M242.652,12.132a.013.013,0,0,1-.007-.014l0,.007Z" transform="translate(-77.205 -3.855)" fill="#fff"/>
        <path id="Path_115" data-name="Path 115" d="M238.268,31.81l3.1-5.737H256.6l3.116,5.737h5.347L252.433,8.4a3.909,3.909,0,0,0-6.9.008c.005,0-6.882,12.792-10.471,19.458l-7.538-7.533a7.173,7.173,0,0,0,3.678-6.407c0-4.758-3.543-7.577-7.906-7.626l-13.1-.011a6.751,6.751,0,0,0-6.758,6.73V28.145c0,2.2,1.146,3.661,3.29,3.668h1.044l-.007-18.886a2.382,2.382,0,0,1,2.344-2.33l13.469,0a3.351,3.351,0,0,1,0,6.7h-5.152L232.937,31.81Zm5.279-9.97c.625-1.182,4.8-9.159,5.436-10.366.635,1.207,4.814,9.183,5.435,10.366Z" transform="translate(-64.73 -2.001)" fill="#fff"/>
        <path id="Path_116" data-name="Path 116" d="M101.072,18.84c0,6.556,5.143,13.19,14.988,13.19s15-6.635,15-13.19-5.155-13.2-15-13.2-14.988,6.639-14.988,13.2m4.544,0c0-4.4,2.741-9.1,10.443-9.1s10.45,4.7,10.45,9.1-2.744,9.1-10.45,9.1-10.443-4.7-10.443-9.1" transform="translate(-32.159 -1.796)" fill="#fff"/>
        <path id="Path_117" data-name="Path 117" d="M65.19,6.277a2.164,2.164,0,1,0,0,4.307l8.6.012v21.21h4.841V10.6h8.6a2.168,2.168,0,1,0,0-4.319Z" transform="translate(-19.985 -1.997)" fill="#fff"/>
        <path id="Path_118" data-name="Path 118" d="M175.513,8.105s-7.8,12.445-9.617,15.35c-.708-1.124-9.622-15.35-9.622-15.35a3.237,3.237,0,0,0-3.3-1.765c-1.855,0-3.314.759-3.4,2.609l-.022,22.877H154.1s-.011-15.686-.015-18.547c1.5,2.418,9.327,14.971,9.327,14.971a2.926,2.926,0,0,0,4.95,0s6.829-10.957,9.33-14.971c0,2.861-.013,18.547-.013,18.547h4.549l0-22.82c0-1.63-1.589-2.667-3.419-2.667a3.237,3.237,0,0,0-3.3,1.765" transform="translate(-47.585 -2.017)" fill="#fff"/>
        <path id="Path_119" data-name="Path 119" d="M0,35.24H14.472V24.7L25.079,35.311,35.312,25.079,24.7,14.472H35.238V0h-28A7.236,7.236,0,0,0,0,7.237Zm12.428-2.045H2.045V12.28c.081.085,10.383,10.38,10.383,10.38Zm0-13.424-5.3-5.3,5.3,0Zm0-7.342H7.237a5.19,5.19,0,1,1,5.189-5.19l0-.02ZM12.28,2.045H33.2V12.428H22.662S12.33,2.095,12.28,2.045M14.47,7.128l5.3,5.3h-5.3s0-5.27,0-5.3m0,14.686V14.472h7.344L32.422,25.079l-7.343,7.342Z" transform="translate(0 0)" fill="#fff"/>
      </g>
    </g>
  </g>
</svg>
