<svg width="151" height="41" viewBox="0 0 151 41" fill="none" xmlns="http://www.w3.org/2000/svg">
<circle cx="17.5606" cy="20.1771" r="14.2923" stroke="white" stroke-width="5.04435"/>
<path d="M56.3884 17.162C56.3884 18.0409 56.1765 18.8648 55.7528 19.6338C55.3448 20.4027 54.6935 21.0226 53.799 21.4934C52.9201 21.9643 51.8059 22.1997 50.4562 22.1997H47.702V28.5085H44.4064V12.0773H50.4562C51.7274 12.0773 52.8103 12.297 53.7048 12.7364C54.5993 13.1759 55.2663 13.7801 55.7057 14.549C56.1608 15.318 56.3884 16.189 56.3884 17.162ZM50.315 19.5396C51.2252 19.5396 51.9 19.3356 52.3395 18.9276C52.7789 18.5038 52.9986 17.9153 52.9986 17.162C52.9986 15.5613 52.1041 14.7609 50.315 14.7609H47.702V19.5396H50.315Z" fill="white"/>
<path d="M63.5776 28.7203C62.3221 28.7203 61.1922 28.4457 60.1878 27.8964C59.1834 27.3314 58.3909 26.5389 57.8102 25.5188C57.2452 24.4988 56.9627 23.3217 56.9627 21.9878C56.9627 20.6538 57.2531 19.4768 57.8337 18.4567C58.4301 17.4367 59.2383 16.652 60.2584 16.1027C61.2785 15.5377 62.4163 15.2553 63.6717 15.2553C64.9272 15.2553 66.065 15.5377 67.0851 16.1027C68.1052 16.652 68.9055 17.4367 69.4862 18.4567C70.0826 19.4768 70.3807 20.6538 70.3807 21.9878C70.3807 23.3217 70.0747 24.4988 69.4627 25.5188C68.8663 26.5389 68.0502 27.3314 67.0145 27.8964C65.9944 28.4457 64.8488 28.7203 63.5776 28.7203ZM63.5776 25.8484C64.1739 25.8484 64.7311 25.7072 65.2489 25.4247C65.7825 25.1265 66.2062 24.6871 66.5201 24.1064C66.834 23.5258 66.9909 22.8196 66.9909 21.9878C66.9909 20.748 66.6614 19.7985 66.0022 19.1394C65.3588 18.4646 64.5663 18.1272 63.6247 18.1272C62.683 18.1272 61.8905 18.4646 61.2471 19.1394C60.6193 19.7985 60.3055 20.748 60.3055 21.9878C60.3055 23.2276 60.6115 24.1849 61.2235 24.8597C61.8513 25.5188 62.636 25.8484 63.5776 25.8484Z" fill="white"/>
<path d="M75.1522 11.0886V28.5085H71.8566V11.0886H75.1522Z" fill="white"/>
<path d="M89.9431 15.4671L81.8688 34.676H78.3613L81.1861 28.1789L75.9602 15.4671H79.656L83.0223 24.5772L86.4356 15.4671H89.9431Z" fill="white"/>
<path d="M106.974 15.2788C108.575 15.2788 109.861 15.7731 110.834 16.7618C111.823 17.7348 112.317 19.1002 112.317 20.8579V28.5085H109.022V21.3051C109.022 20.285 108.763 19.5082 108.245 18.9746C107.727 18.4254 107.021 18.1507 106.126 18.1507C105.232 18.1507 104.518 18.4254 103.984 18.9746C103.466 19.5082 103.207 20.285 103.207 21.3051V28.5085H99.9117V21.3051C99.9117 20.285 99.6528 19.5082 99.1349 18.9746C98.617 18.4254 97.9108 18.1507 97.0162 18.1507C96.106 18.1507 95.3841 18.4254 94.8505 18.9746C94.3326 19.5082 94.0737 20.285 94.0737 21.3051V28.5085H90.778V15.4671H94.0737V17.0443C94.4974 16.4951 95.0388 16.0635 95.698 15.7496C96.3728 15.4357 97.1104 15.2788 97.9108 15.2788C98.9308 15.2788 99.8411 15.4985 100.641 15.9379C101.442 16.3617 102.062 16.9737 102.501 17.7741C102.925 17.0208 103.537 16.4166 104.337 15.9615C105.153 15.5064 106.032 15.2788 106.974 15.2788Z" fill="white"/>
<path d="M113.656 21.9407C113.656 20.6225 113.915 19.4533 114.433 18.4332C114.966 17.4131 115.68 16.6284 116.575 16.0792C117.485 15.5299 118.497 15.2553 119.611 15.2553C120.584 15.2553 121.432 15.4514 122.154 15.8438C122.891 16.2361 123.48 16.7305 123.919 17.3268V15.4671H127.239V28.5085H123.919V26.6017C123.496 27.2137 122.907 27.7238 122.154 28.1318C121.416 28.5242 120.561 28.7203 119.588 28.7203C118.489 28.7203 117.485 28.4378 116.575 27.8729C115.68 27.3079 114.966 26.5154 114.433 25.4953C113.915 24.4595 113.656 23.2747 113.656 21.9407ZM123.919 21.9878C123.919 21.1874 123.762 20.5048 123.449 19.9398C123.135 19.3591 122.711 18.9197 122.177 18.6215C121.644 18.3077 121.071 18.1507 120.459 18.1507C119.847 18.1507 119.282 18.2998 118.764 18.598C118.246 18.8962 117.822 19.3356 117.493 19.9162C117.179 20.4812 117.022 21.156 117.022 21.9407C117.022 22.7254 117.179 23.4159 117.493 24.0123C117.822 24.5929 118.246 25.0402 118.764 25.3541C119.298 25.6679 119.863 25.8249 120.459 25.8249C121.071 25.8249 121.644 25.6758 122.177 25.3776C122.711 25.0637 123.135 24.6243 123.449 24.0593C123.762 23.4787 123.919 22.7882 123.919 21.9878Z" fill="white"/>
<path d="M133.353 18.1743V24.4831C133.353 24.9225 133.455 25.2442 133.659 25.4482C133.878 25.6365 134.239 25.7307 134.742 25.7307H136.272V28.5085H134.2C131.422 28.5085 130.034 27.1588 130.034 24.4595V18.1743H128.48V15.4671H130.034V12.2421H133.353V15.4671H136.272V18.1743H133.353Z" fill="white"/>
<path d="M145.045 15.2788C146.034 15.2788 146.913 15.4985 147.682 15.9379C148.451 16.3617 149.047 16.9972 149.471 17.8447C149.91 18.6765 150.13 19.6808 150.13 20.8579V28.5085H146.834V21.3051C146.834 20.2693 146.575 19.4768 146.057 18.9276C145.539 18.3626 144.833 18.0801 143.939 18.0801C143.028 18.0801 142.307 18.3626 141.773 18.9276C141.255 19.4768 140.996 20.2693 140.996 21.3051V28.5085H137.701V11.0886H140.996V17.0914C141.42 16.5264 141.985 16.087 142.691 15.7731C143.397 15.4436 144.182 15.2788 145.045 15.2788Z" fill="white"/>
</svg>
