<svg xmlns="http://www.w3.org/2000/svg" width="123.127" height="60.459" viewBox="0 0 123.127 60.459">
  <g id="Group_18" data-name="Group 18" transform="translate(1197.387 -562.481)">
    <g id="layer1" transform="translate(-1647.273 57.016)">
      <path id="path108" d="M560.729,533.29h12.284v12.284H560.729Zm-36.851,0H536.16v12.284H523.877Zm-36.853,0h12.284v12.284H487.024ZM479.2,553q0,5.846,1.71,7.593c.965.994,2.61,1.606,4.915,1.833.684.057,1.856.084,3.511.084v3.415h-29.6v-3.415A29.251,29.251,0,0,0,465,562.17a5.274,5.274,0,0,0,4.332-4.01A21.094,21.094,0,0,0,469.8,553V508.369q-7.533.213-11.786,4.991-4.041,4.574-4.934,14l-3.2-.552.6-21.345H498.6l.6,21.345-3.2.552q-.893-9.43-4.956-14-4.275-4.78-11.835-4.991V553Zm-29.26-19.71h12.284v12.284H449.945Z" transform="translate(0)" fill="#fff"/>
    </g>
  </g>
</svg>
