<svg xmlns="http://www.w3.org/2000/svg" xmlns:xlink="http://www.w3.org/1999/xlink" width="239.826" height="27.553" viewBox="0 0 239.826 27.553">
  <defs>
    <clipPath id="clip-path">
      <rect id="Rectangle_1" data-name="Rectangle 1" width="239.826" height="27.553" fill="#fff"/>
    </clipPath>
  </defs>
  <g id="Group_19" data-name="Group 19" transform="translate(1004.818 -578.935)">
    <g id="Group_2" data-name="Group 2" transform="translate(-1004.818 578.935)">
      <g id="Group_1" data-name="Group 1" transform="translate(0 0)" clip-path="url(#clip-path)">
        <path id="Path_8" data-name="Path 8" d="M74.285,3.454A11.651,11.651,0,0,0,70.619.988a11.388,11.388,0,0,0-4.513-.9H50.8a11.377,11.377,0,0,0-4.514.9A11.483,11.483,0,0,0,40.156,7.12a11.3,11.3,0,0,0-.9,4.477v4.416a11.4,11.4,0,0,0,.9,4.514,11.5,11.5,0,0,0,6.131,6.131,11.392,11.392,0,0,0,4.514.9h15.3a11.388,11.388,0,0,0,4.513-.9,11.5,11.5,0,0,0,6.131-6.131,11.389,11.389,0,0,0,.9-4.514V11.6a11.293,11.293,0,0,0-.9-4.477,11.656,11.656,0,0,0-2.465-3.666M72.037,11.6v4.416A5.8,5.8,0,0,1,70.3,20.18a6.2,6.2,0,0,1-1.9,1.266,5.783,5.783,0,0,1-2.3.462H50.8a5.784,5.784,0,0,1-2.3-.462,5.858,5.858,0,0,1-3.136-3.136,5.772,5.772,0,0,1-.461-2.3V11.6a5.678,5.678,0,0,1,.461-2.26,6.219,6.219,0,0,1,1.266-1.9A5.83,5.83,0,0,1,48.5,6.162a5.766,5.766,0,0,1,2.3-.46h15.3a5.765,5.765,0,0,1,2.3.46,6.007,6.007,0,0,1,3.173,3.174,5.685,5.685,0,0,1,.462,2.26" transform="translate(-4.347 -0.009)" fill="#fff"/>
        <path id="Path_9" data-name="Path 9" d="M166.414,13.449a8.458,8.458,0,0,0-2.606-1.765,7.932,7.932,0,0,0-3.2-.662H142.69a2.327,2.327,0,0,1-1.776-.767,3.172,3.172,0,0,1-.852-1.972,3.069,3.069,0,0,1,.82-1.852,2.333,2.333,0,0,1,1.808-.743H167.5V.085H142.69a8.025,8.025,0,0,0-3.237.662,8.552,8.552,0,0,0-2.624,1.784,8.2,8.2,0,0,0-2.408,5.861,7.985,7.985,0,0,0,.662,3.238,8.526,8.526,0,0,0,1.782,2.624,8.3,8.3,0,0,0,2.632,1.77,8.13,8.13,0,0,0,3.192.638h17.919a2.46,2.46,0,0,1,1.841.759,2.55,2.55,0,0,1,.753,1.872,2.633,2.633,0,0,1-.2,1.026,2.844,2.844,0,0,1-.558.852,2.4,2.4,0,0,1-.811.552,2.608,2.608,0,0,1-1.024.2H135.765v5.64h24.844a7.988,7.988,0,0,0,3.237-.663,8.448,8.448,0,0,0,2.606-1.763A8.2,8.2,0,0,0,168.2,22.5a8.374,8.374,0,0,0,.638-3.246,7.92,7.92,0,0,0-.662-3.2,8.482,8.482,0,0,0-1.764-2.606" transform="translate(-14.886 -0.009)" fill="#fff"/>
        <path id="Path_10" data-name="Path 10" d="M206.94,16.087a5.552,5.552,0,0,1-.46,2.238,5.9,5.9,0,0,1-1.273,1.855,6.214,6.214,0,0,1-1.9,1.264,5.646,5.646,0,0,1-2.259.462H189.479a5.6,5.6,0,0,1-2.274-.462,5.819,5.819,0,0,1-1.854-1.272,6.188,6.188,0,0,1-1.267-1.9,5.653,5.653,0,0,1-.462-2.26V.084h-5.655V16.012a11.288,11.288,0,0,0,.905,4.5,11.758,11.758,0,0,0,6.147,6.147,11.252,11.252,0,0,0,4.5.9h11.529a11.254,11.254,0,0,0,4.5-.9,11.768,11.768,0,0,0,6.146-6.145,11.269,11.269,0,0,0,.9-4.5V.084H206.94Z" transform="translate(-19.709 -0.009)" fill="#fff"/>
        <path id="Path_11" data-name="Path 11" d="M255.606,16.039h0a8.339,8.339,0,0,0-4.375-4.373,7.925,7.925,0,0,0-3.2-.662H230.095a2.325,2.325,0,0,1-1.778-.768,3.166,3.166,0,0,1-.854-1.974,3.072,3.072,0,0,1,.82-1.854,2.33,2.33,0,0,1,1.811-.743h24.828V.055H230.095a8.038,8.038,0,0,0-3.243.662A8.562,8.562,0,0,0,224.227,2.5a8.212,8.212,0,0,0-2.411,5.866,8.019,8.019,0,0,0,.662,3.241,8.545,8.545,0,0,0,1.786,2.626,8.308,8.308,0,0,0,2.636,1.771,8.137,8.137,0,0,0,3.2.64h17.934a2.463,2.463,0,0,1,1.843.759,2.557,2.557,0,0,1,.751,1.875,2.625,2.625,0,0,1-.2,1.025,2.777,2.777,0,0,1-.558.853,2.406,2.406,0,0,1-.812.553,2.625,2.625,0,0,1-1.025.2H223.161v5.646h24.867a8.019,8.019,0,0,0,3.24-.662,8.519,8.519,0,0,0,2.609-1.766,8.169,8.169,0,0,0,1.751-2.638,8.363,8.363,0,0,0,.639-3.247,7.964,7.964,0,0,0-.662-3.2" transform="translate(-24.565 -0.006)" fill="#fff"/>
        <path id="Path_12" data-name="Path 12" d="M269.014,2.816A2.677,2.677,0,0,1,266.3,5.649a2.719,2.719,0,0,1-2.733-2.832,2.726,2.726,0,1,1,5.449,0m-4.82.016a2.134,2.134,0,0,0,2.1,2.22,1.99,1.99,0,0,0,2.071-2.22,2.093,2.093,0,1,0-4.174,0m.993,1.326V1.392H266.4c.578,0,1.11.2,1.11.795a.682.682,0,0,1-.465.646c.233.084.382.3.382.729a3.943,3.943,0,0,0,.033.6h-.7a2.349,2.349,0,0,1-.066-.58c0-.348-.083-.48-.447-.48h-.366v1.06Zm.712-1.574h.431c.265,0,.431-.083.431-.365,0-.231-.116-.331-.431-.331H265.9Z" transform="translate(-29.188 0)" fill="#fff"/>
        <path id="Path_13" data-name="Path 13" d="M126.2,26.282q-.82-1.082-1.752-2.329t-1.907-2.543q-.971-1.286-1.922-2.557-.606-.806-1.173-1.568a8.938,8.938,0,0,0,2.855-1.83,10.152,10.152,0,0,0,2.083-2.883,8.4,8.4,0,0,0,.743-3.518,8.569,8.569,0,0,0-1.151-4.333,8.908,8.908,0,0,0-3.056-3.163A9.337,9.337,0,0,0,115.79.089h-27V5.732h27a3.844,3.844,0,0,1,2.59.991A3.659,3.659,0,0,1,119.2,7.8a2.749,2.749,0,0,1,.291,1.256,2.889,2.889,0,0,1-.278,1.268,3.542,3.542,0,0,1-.78,1.071,3.593,3.593,0,0,1-1.152.72,3.7,3.7,0,0,1-1.373.263H91.608v0A2.821,2.821,0,0,0,88.786,15.2V27.543h5.643V18.056h18.5l7.1,9.487h7.131Z" transform="translate(-9.832 -0.009)" fill="#fff"/>
        <path id="Path_14" data-name="Path 14" d="M0,5.7H14v21.86h5.617V5.7H30.052L33.616.085H0Z" transform="translate(0 -0.009)" fill="#fff"/>
      </g>
    </g>
  </g>
</svg>
