<svg xmlns="http://www.w3.org/2000/svg" xmlns:xlink="http://www.w3.org/1999/xlink" width="239.826" height="65.696" viewBox="0 0 239.826 65.696">
  <defs>
    <clipPath id="clip-path">
      <rect id="Rectangle_7" data-name="Rectangle 7" width="239.826" height="65.696" fill="none"/>
    </clipPath>
  </defs>
  <g id="Group_20" data-name="Group 20" transform="translate(695.55 -559.863)">
    <g id="Group_13" data-name="Group 13" transform="translate(-695.55 559.863)">
      <g id="Group_12" data-name="Group 12" clip-path="url(#clip-path)">
        <path id="Path_71" data-name="Path 71" d="M687.836,203.4V189.144c0-1.995-.036-3.145-2.26-3.145a9.105,9.105,0,0,0-3.678,1.036,13.3,13.3,0,0,1,.114,2.108V203.4H675.3V189.144c0-1.995-.038-3.145-2.108-3.145a8.907,8.907,0,0,0-3.754,1.114V198.34l1.762.193V203.4h-10.2v-4.866l1.767-.193V186.5l-1.767-.154v-4.866h8.048v1.763a10.6,10.6,0,0,1,6.593-2.3c2.682,0,4.215.882,5.173,2.377a11.949,11.949,0,0,1,6.859-2.377c6.055,0,6.86,3.719,6.86,8.047v9.352l1.764.193V203.4Z" transform="translate(-582.031 -159.322)" fill="#fff"/>
        <path id="Path_72" data-name="Path 72" d="M990.008,193.781h-2.222c-3.065,0-4.367.345-4.367,2.8v.881c0,1.687,1.032,2.147,2.491,2.147a9.441,9.441,0,0,0,4.1-1Zm.345,9.618v-1.417a13.065,13.065,0,0,1-6.9,1.954c-4.1,0-6.4-2.073-6.4-6.249v-.882c0-5.823,4.445-6.475,10.654-6.475h2.031v-1.187c0-2.646-.575-3.18-4.024-3.18-.8,0-1.534.036-2.376.075l-.382,1.689h-4.294v-5.484a29.614,29.614,0,0,1,8.432-1.3c6.822,0,9.351,2.186,9.351,8.2v9.2l1.723.193V203.4Z" transform="translate(-860.317 -159.322)" fill="#fff"/>
        <path id="Path_73" data-name="Path 73" d="M1188.261,187.611V198.34l1.726.193V203.4h-10.156v-4.866l1.763-.193v-11.8l-1.763-.193v-4.866h7.97v1.839a10.123,10.123,0,0,1,7.2-2.377v5.711a24.612,24.612,0,0,0-6.745.96" transform="translate(-1038.863 -159.321)" fill="#fff"/>
        <path id="Path_74" data-name="Path 74" d="M1346.092,148.628l-6.706-10.117v10.117h-8.43v-4.866l1.762-.193V123.756l-1.762-.152v-4.866h8.43V136.4l6.859-9.7h6.631v4.9l-2.49.231-4.486,5.4,4.83,6.208,2.184.269v4.9Z" transform="translate(-1171.931 -104.551)" fill="#fff"/>
        <path id="Path_75" data-name="Path 75" d="M1547.135,124.917h-6.247l5.058-5.557h7.551Zm-6.668,24.258v-4.9l1.763-.154V132.352l-1.763-.193v-4.9h8.429v16.862l1.764.154v4.9Z" transform="translate(-1356.41 -105.099)" fill="#fff"/>
        <path id="Path_76" data-name="Path 76" d="M1652.754,207.36v-4.984l10.309-12.032h-5.826l-.345,1.533H1653.1V185.44h17.436V190.5l-10.23,12h6.13l.384-1.763h3.755v6.629Z" transform="translate(-1455.281 -163.283)" fill="#fff"/>
        <path id="Path_77" data-name="Path 77" d="M1843.45,193.781h-2.223c-3.064,0-4.368.345-4.368,2.8v.881c0,1.687,1.033,2.147,2.491,2.147a9.459,9.459,0,0,0,4.1-1Zm.345,9.618v-1.417a13.075,13.075,0,0,1-6.9,1.954c-4.1,0-6.4-2.073-6.4-6.249v-.882c0-5.823,4.444-6.475,10.654-6.475h2.032v-1.187c0-2.646-.576-3.18-4.025-3.18-.8,0-1.532.036-2.375.075l-.385,1.689h-4.291v-5.484a29.61,29.61,0,0,1,8.433-1.3c6.82,0,9.351,2.186,9.351,8.2v9.2l1.723.193V203.4Z" transform="translate(-1611.787 -159.322)" fill="#fff"/>
        <path id="Path_78" data-name="Path 78" d="M133.424,121.222A18.972,18.972,0,0,0,112.349,143.3c.036.218.172.649.363.347,1.55-2.444,4.784-7.86,7-11.456.968-1.569,2.142-3.085,3.661-2.9,1.066.133,2.062,1.061,2.781,2.565,3.118,6.525,5.559,12.761,5.833,12.724,1.777-1.749,3.55-3.573,6.467-4.309,2.57-.65,6.788-.357,11.4,5.161,3.218-10.929-4.435-22.783-16.433-24.211" transform="translate(-98.684 -106.624)" fill="#fff"/>
        <path id="Path_79" data-name="Path 79" d="M51.5,45.642a22.507,22.507,0,0,1-18.71,9.8c-8.258-.044-14.276-3.668-19.1-7.908C9.671,44,6.075,40.268,1.286,38.661c-1.552-.521-.818-1.635.076-1.42,10.781,2.578,15.443,15.312,31.516,14.854a19.024,19.024,0,0,0,16.1-9.08c-2.172-2.774-5.634-5.466-8.936-4.428-2.528.793-5.114,3.782-6.334,4.834s-2.236.333-2.832-.7c-2.482-4.284-5.975-12.235-6.8-13.46-.209-.31-.5-.422-.792-.011-1,1.417-3.722,5.524-6,8.528-.972,1.281-2.548,3.814-4.491,2.72-1.3-.73-2.584-3.212-2.583-7.6a22.452,22.452,0,0,1,25.169-22.5C48.814,11.854,59.972,26.391,53.637,41.7c.414.533,4.372,5.336,9.912,1.727.243-.159.373-.11.405.008a33.028,33.028,0,1,0-.146.415c-2.4,3.56-8.512,5.253-12.307,1.8" transform="translate(0 -0.001)" fill="#fff"/>
      </g>
    </g>
  </g>
</svg>
