<svg xmlns="http://www.w3.org/2000/svg" xmlns:xlink="http://www.w3.org/1999/xlink" width="160.451" height="124.693" viewBox="0 0 160.451 124.693">
  <defs>
    <clipPath id="clip-path">
      <rect id="Rectangle_6" data-name="Rectangle 6" width="160.451" height="124.693" fill="none"/>
    </clipPath>
  </defs>
  <g id="Group_21" data-name="Group 21" transform="translate(386.281 -530.364)">
    <g id="Group_11" data-name="Group 11" transform="translate(-386.281 530.364)">
      <g id="Group_10" data-name="Group 10" clip-path="url(#clip-path)">
        <path id="Path_54" data-name="Path 54" d="M197.475,38.477a27.253,27.253,0,0,0-1.933-2.742c-.522.95-2.327,1.67-2.563,1.412a15.758,15.758,0,0,0,3.03-4.724h0a.841.841,0,0,0-.261-.985,30.647,30.647,0,0,0-3.39-1.845s.723-1.505,1.015-2.061a2.122,2.122,0,0,1,1.329-.949s2.344-.251,2.176-1.758-.365-2.188-.1-2.77a1.029,1.029,0,0,0-.528-1.457c.711-.67.879-.921.67-1.591s-.628-1.842-.628-1.842a3.619,3.619,0,0,0,1.277-.588c.588-.452.67-1.112-.338-2.056-.559-.524-1.293-1.254-1.592-1.608a2.842,2.842,0,0,1-.628-1.774c.016-.258.476-.889.5-1.14a.26.26,0,0,1-.146.146.544.544,0,0,0,.146-.419.268.268,0,0,1-.094.157,2.481,2.481,0,0,0,.1-.586l-.1.178a.789.789,0,0,0-.094-.345.1.1,0,0,1-.089.105,2.34,2.34,0,0,0-.749-.472c-.607-.8-.983-1.862-1.308-2.25a1.964,1.964,0,0,0,.2-1.8,5.1,5.1,0,0,0,.837,1.056,13.324,13.324,0,0,0-.408-1.862,1.825,1.825,0,0,1,.854.249,5.984,5.984,0,0,0-1.228-1.912c-.764-.711-2.043-.619-2.818-1.038a6.8,6.8,0,0,0-2.836-.952c-1.015-.031-2.448-.178-3.1-.23s-2.867.062-3.872,0a6.167,6.167,0,0,0-2.469.188A9,9,0,0,1,177,.927c-.67.293-2.72,1-3.306,1.8s-2.637,3.264-2.846,4.939a39.745,39.745,0,0,0,.167,7.2c.209,1,.586,5.023.879,5.65s.125,1,.418,1.884a3.333,3.333,0,0,0,1.5,1.485l14.005,5.427-14.238-4.25-.564,2.321a20.694,20.694,0,0,1,3.5,1.583c-2.167-.475-4.36-1-4.481-.925a3.37,3.37,0,0,0-1.384,1.282,10.6,10.6,0,0,1-3.028,3.583c-1.8,1.549-5.274,4.646-5.9,9.626S161,53.041,161,53.041h42.171s-2.66-9.751-5.7-14.564" transform="translate(-100.06 0)" fill="#fff"/>
        <path id="Path_55" data-name="Path 55" d="M24.722,210.189H30.1v26.52H26.116V213.259h-.08L17.68,236.709H14.843L6.532,213.5H6.447v23.213H3.941V215.242c0-3.674-.564-3.521-3.941-4.189v-.864H9.051l7.865,21.745h.089Z" transform="translate(0 -130.628)" fill="#fff"/>
        <path id="Path_56" data-name="Path 56" d="M98.436,210.182H90.947v.862c1.606.239,3.065.271,3.065,1.858a15.29,15.29,0,0,1-.679,2.335L85.417,236.7h2.466l2.994-8.19h10.151l2.979,8.19h4.144Zm-6.879,16.463,4.25-11.5,4.551,11.5Z" transform="translate(-53.085 -130.624)" fill="#fff"/>
        <path id="Path_57" data-name="Path 57" d="M156.458,210.183l.163,5.826H155.5c0-3.032-1.273-3.985-4.337-3.985h-2.717V236.7h-4.373v-24.68h-2.752c-3.143,0-4.062,1-4.289,3.864h-1.118l.16-5.7Z" transform="translate(-84.468 -130.624)" fill="#fff"/>
        <path id="Path_58" data-name="Path 58" d="M216.263,210.183l-8.527,14.139V236.7h-4.365V224.322l-6.414-10.639c-1.4-2.308-2.4-2.308-4.383-2.64v-.861h7.4l6.776,11.62,6.966-11.62Z" transform="translate(-119.681 -130.624)" fill="#fff"/>
        <path id="Path_59" data-name="Path 59" d="M265.678,189.454l-3.4-4.881h1.879l3.661,3.224,3.812-3.224h1.83l-3.258,4.815c-.633.944-.918,1.722-2.349,1.722s-1.795-1.055-2.177-1.657" transform="translate(-163.002 -114.708)" fill="#fff"/>
        <path id="Path_60" data-name="Path 60" d="M272.222,228.659c0,5.639-4.485,7.764-9.982,7.764a31.183,31.183,0,0,1-6.968-1.018v-3.193a16.761,16.761,0,0,0,7.6,2.361c2.508,0,4.979-1.036,4.979-4.621,0-6.38-12.946-5.8-12.946-14.108,0-4.327,3.347-6.81,8.96-6.81a35.059,35.059,0,0,1,6.374.709v2.915a17.666,17.666,0,0,0-7.12-1.778,3.546,3.546,0,0,0-3.822,3.831c0,6.07,12.923,5.518,12.923,13.949" transform="translate(-158.419 -129.91)" fill="#fff"/>
        <path id="Path_61" data-name="Path 61" d="M315.663,190.462h-1.67l1.039-4.916c.194-.952.4-2.016,1.9-2.016a1.661,1.661,0,0,1,1.841,1.5,3.989,3.989,0,0,1-.6,1.295Zm-6.644,3.156v.862c1.6.239,3.075.271,3.075,1.858a17.036,17.036,0,0,1-.684,2.335l-7.917,21.467h2.465l2.977-8.19h10.158l2.983,8.19h4.146L316.5,193.618Zm.6,16.463,4.256-11.5,4.542,11.5Z" transform="translate(-188.614 -114.06)" fill="#fff"/>
        <path id="Path_62" data-name="Path 62" d="M386.382,235.989h-5.091l-9.32-13.367H371.9v13.367H367.51V214.677c0-3.124-.313-3.467-3.971-3.868v-.878l8.359-.9V222.16h.073l9.879-12.691h2.9l-9.038,11.581Z" transform="translate(-225.932 -129.91)" fill="#fff"/>
        <path id="Path_63" data-name="Path 63" d="M119.608,320l-.132-.562-.316-.965-1.263-.026-1.14.026-.342.93-.14.6h-.7l2.062-5.624h.816L120.327,320Zm-1.553-4.9h-.061l-1.018,2.772.983.018,1.009-.018Z" transform="translate(-71.825 -195.38)" fill="#fff"/>
        <path id="Path_64" data-name="Path 64" d="M145.571,319.974h-.737l-2.9-4.5h-.053l-.009,2.65.027,1.851h-.658l.044-1.667-.026-3.957h.737l2.9,4.5h.061l-.009-4.466.667-.052-.053,3.992Z" transform="translate(-87.775 -195.351)" fill="#fff"/>
        <path id="Path_65" data-name="Path 65" d="M171.839,319.974H171.1l-2.9-4.5h-.053l-.009,2.65.026,1.851H167.5l.044-1.667-.026-3.957h.737l2.9,4.5h.061l-.009-4.466.667-.052-.053,3.992Z" transform="translate(-104.1 -195.351)" fill="#fff"/>
        <path id="Path_66" data-name="Path 66" d="M197.411,316.995c0,1.913-.912,2.992-2.527,2.992-1.527,0-2.386-1.027-2.386-2.834,0-1.877.9-2.913,2.527-2.913,1.535,0,2.386.983,2.386,2.755m-4.194.07c0,1.58.57,2.334,1.711,2.334,1.158,0,1.754-.746,1.754-2.281,0-1.562-.57-2.3-1.719-2.3-1.167,0-1.746.737-1.746,2.246" transform="translate(-119.633 -195.293)" fill="#fff"/>
        <path id="Path_67" data-name="Path 67" d="M233.18,318.864l.044,1.816h-.7l.035-1.729-.008-2.676-1.2.325-.061-.044V316l1.842-.535.105.088Z" transform="translate(-143.739 -196.057)" fill="#fff"/>
        <path id="Path_68" data-name="Path 68" d="M254.218,317.358a3.645,3.645,0,0,1-2.6,3.369h-.044l-.535-.316v-.07a3.346,3.346,0,0,0,2.43-2.088l-.053-.061a1.9,1.9,0,0,1-1.141.386,1.344,1.344,0,0,1-1.4-1.483,1.578,1.578,0,0,1,1.711-1.649c1.1,0,1.632.711,1.632,1.913m-.64.246.009-.237c0-.947-.324-1.439-1.053-1.439a.954.954,0,0,0-1.035,1.062c0,.693.36,1.07.974,1.07a1.648,1.648,0,0,0,1.105-.456" transform="translate(-155.913 -196.042)" fill="#fff"/>
        <path id="Path_69" data-name="Path 69" d="M275.548,317.358a3.645,3.645,0,0,1-2.6,3.369h-.044l-.535-.316v-.07a3.347,3.347,0,0,0,2.43-2.088l-.053-.061a1.9,1.9,0,0,1-1.141.386,1.344,1.344,0,0,1-1.4-1.483,1.578,1.578,0,0,1,1.711-1.649c1.1,0,1.632.711,1.632,1.913m-.64.246.009-.237c0-.947-.324-1.439-1.053-1.439a.954.954,0,0,0-1.035,1.062c0,.693.36,1.07.974,1.07a1.648,1.648,0,0,0,1.105-.456" transform="translate(-169.169 -196.042)" fill="#fff"/>
        <path id="Path_70" data-name="Path 70" d="M294.526,318.864l.044,1.816h-.7l.035-1.729-.008-2.676-1.2.325-.061-.044V316l1.842-.535.105.088Z" transform="translate(-181.864 -196.057)" fill="#fff"/>
      </g>
    </g>
  </g>
</svg>
