<svg xmlns="http://www.w3.org/2000/svg" width="122.1" height="82.255" viewBox="0 0 122.1 82.255">
  <g id="Group_22" data-name="Group 22" transform="translate(156.389 -551.583)">
    <path id="Exclusion_1" data-name="Exclusion 1" d="M60.767,82.255a160.757,160.757,0,0,1-22.972-1.586c-11.6-1.737-20.766-4.6-27.256-8.521a25.47,25.47,0,0,1-7.607-6.707A15.525,15.525,0,0,1,0,57.157V11.081a11.069,11.069,0,0,1,1.981-6.47A10.591,10.591,0,0,1,6.24,1.258,15.552,15.552,0,0,1,11.568.035c.379-.024.8-.035,1.288-.035.437,0,.883.009,1.314.018s.861.017,1.28.017H106.57c1.374,0,2.932,0,4.279.079A14.678,14.678,0,0,1,114.1.666,12.426,12.426,0,0,1,117.5,2.214,10.52,10.52,0,0,1,120.2,4.769a10.789,10.789,0,0,1,1.9,6.391V57.867a14.087,14.087,0,0,1-2.456,7.18,23.422,23.422,0,0,1-7.131,6.627C106.428,75.495,97.844,78.361,87,80.2a159.6,159.6,0,0,1-24.483,2.051C61.934,82.252,61.346,82.255,60.767,82.255ZM1.347,57.078a13.466,13.466,0,0,0,2.714,7.653,24.718,24.718,0,0,0,7.112,6.233c6.217,3.8,15.477,6.7,26.781,8.363a159.739,159.739,0,0,0,22.831,1.586c.573,0,1.156,0,1.732-.008a156.988,156.988,0,0,0,24.325-2.051,99.636,99.636,0,0,0,14-3.382,49.715,49.715,0,0,0,11.033-4.98A23.184,23.184,0,0,0,118.2,64.84,12.76,12.76,0,0,0,120.832,57v.315a12.975,12.975,0,0,1-2.753,7.574,23.159,23.159,0,0,1-6.2,5.444,50.094,50.094,0,0,1-11.033,5.01,93.176,93.176,0,0,1-14,3.353,146.882,146.882,0,0,1-24.325,2.051c-.582.006-1.169.008-1.746.008A158.29,158.29,0,0,1,37.953,79.17c-11.036-1.628-20.3-4.52-26.781-8.363A23.732,23.732,0,0,1,4.12,64.712a13.7,13.7,0,0,1-2.773-7.633ZM12.519,2.323A12.255,12.255,0,0,0,6.021,3.9,7.832,7.832,0,0,0,3.09,7.214a10.531,10.531,0,0,0-.792,3.55V55.816c0,.137,0,.277-.01.412a4.539,4.539,0,0,0,.089,1.324,13.183,13.183,0,0,0,3.645,7.969,30,30,0,0,0,10.3,6.942C22.015,75,29.373,76.964,38.191,78.3a162.8,162.8,0,0,0,22.84,1.585c.519,0,1.046,0,1.564-.007a157.827,157.827,0,0,0,24.167-2.051,97.433,97.433,0,0,0,12.648-2.909,54.016,54.016,0,0,0,10.33-4.27,26.212,26.212,0,0,0,7.131-5.6,12.745,12.745,0,0,0,2.932-6.391,24.961,24.961,0,0,0,.158-3.393V12.975c0-.962,0-2.051-.079-3a8.152,8.152,0,0,0-3.566-5.917c-2.387-1.608-4.794-1.736-7.693-1.736h-96.1ZM1.347,55.421c0,.184-.009.372-.018.552-.011.234-.023.476-.015.713a1.3,1.3,0,0,0,.033.392,3.553,3.553,0,0,1-.033-.392c0-.059.008-.118.013-.18.009-.109.02-.233.02-.375ZM12.6,1.262c.32,0,.638.009.947.018s.593.017.878.017h94.051a22.23,22.23,0,0,1,2.3.079,17.242,17.242,0,0,1,3.011.474,9.637,9.637,0,0,1,5.388,3.629,9.53,9.53,0,0,1,1.664,5.681V11a10.293,10.293,0,0,0-1.664-5.681,8.628,8.628,0,0,0-2.337-2.259,10.969,10.969,0,0,0-3.05-1.371,17.173,17.173,0,0,0-3.011-.474c-1.426-.079-2.876-.079-4.279-.079H15.53c-.421,0-.857-.009-1.28-.017S13.373,1.1,12.936,1.1c-.488,0-.909.011-1.288.035a18.346,18.346,0,0,0-3.292.677A14.78,14.78,0,0,1,11.647,1.3C11.932,1.274,12.242,1.262,12.6,1.262Zm-4.24.554a9.39,9.39,0,0,0-5.266,3.5,9.931,9.931,0,0,0-1.743,5.759v.079A9.931,9.931,0,0,1,3.09,5.4,9.881,9.881,0,0,1,8.355,1.816ZM60.693,78.6c-5.455,0-10.84-.259-16.005-.769a14.975,14.975,0,0,0,.466-4.8,7.945,7.945,0,0,0-1.106-3.5c-1.241-2.013-3.468-3.374-6.808-4.159A59.508,59.508,0,0,0,24.176,64.33c-.593,0-1.185,0-1.758,0h-.029q-.829,0-1.63,0c-7.406,0-14.257-.308-16.718-4.024A6.161,6.161,0,0,1,3.09,56.6V11.16a9.165,9.165,0,0,1,.238-2.13,8.027,8.027,0,0,1,3.169-4,11.007,11.007,0,0,1,6.022-1.519h97.22a10.406,10.406,0,0,1,5.645,1.627,6.575,6.575,0,0,1,2.674,3.817,9.807,9.807,0,0,1,.237,2.13V56.6a5.881,5.881,0,0,1-2.06,4.971c-1.438,1.181-3.686,1.952-6.874,2.357a79.884,79.884,0,0,1-9.607.4l-1.284,0h-.019l-1.295,0a71.6,71.6,0,0,0-10.476.556,20.366,20.366,0,0,0-5.406,1.43,8.522,8.522,0,0,0-3.7,2.909A7.805,7.805,0,0,0,76.3,72.811a15.007,15.007,0,0,0,.4,5.018C71.53,78.339,66.145,78.6,60.693,78.6Zm-11.988-25.1c.016,0,.023.011.023.035,0,.159-.533.565-.962.891-.208.158-.386.294-.464.372a10.194,10.194,0,0,0-1.9,2.761.591.591,0,0,0,0,.71c.022.067.15.381.327.815.449,1.1,1.2,2.948,1.257,3.287.053.476.212.707.486.707a.991.991,0,0,0,.465-.155l.476-.236c.274-.183.555-.41.555-.71V60.55c0-.208-.186-.3-.336-.366l-.061-.029a1.8,1.8,0,0,1-.975-1.023,1.089,1.089,0,0,1,.183-.871c.706-1.087,3.076-1.593,4.455-1.593a3.1,3.1,0,0,1,.853.094c-.172-.257-.346-.514-.53-.786a38.283,38.283,0,0,1-2.8-4.578,3.511,3.511,0,0,1-.139-3.063,4.755,4.755,0,0,1,3.15-2.066c-.112.056-.256.116-.422.185A4,4,0,0,0,49.926,48.4a3.411,3.411,0,0,0,.308,2.682,31.07,31.07,0,0,0,2.427,3.747c.437.612.887,1.242,1.3,1.855l.143.2a13.974,13.974,0,0,1,1.363,2.169c.6,1.385.136,1.837-.626,2.587-.155.152-.314.309-.483.49-.1.1-.271.27-.227.376.027.064.13.1.306.1.294,0,.591.009.878.018s.566.017.842.017a8.082,8.082,0,0,0,.816-.035c.105,0,.213-.142.316-.279a1.867,1.867,0,0,1,.159-.194l.064-.1c1.361-2.168,1.361-2.168.385-3.893-.109-.193-.233-.412-.37-.66a.285.285,0,0,1-.04-.233.052.052,0,0,1,.047-.024.168.168,0,0,1,.072.021,7.718,7.718,0,0,0,3.222.657,20.057,20.057,0,0,0,6-1.276l.282-.091a3.351,3.351,0,0,1,.78-.122c.341,0,.526.117.567.359.07.487-.352.728-.725.941l-.147.085c-.373.217-.715.4-1.045.57-1.345.707-2.233,1.174-2.679,2.822-.071.264-.145.477-.205.648-.1.289-.162.463-.091.563s.322.131.771.131h1.505c.462,0,.628-.45.713-.789.165-1.226,1.341-1.921,2.3-2.288.485-.2.843-.332,1.131-.437,1.059-.39,1.059-.39,2.412-1.981L72.42,57c.677-.825,1.4-1.63,1.98-2.21a5.558,5.558,0,0,0,2.218-3.077,5.415,5.415,0,0,0,0-2.524,12.151,12.151,0,0,0,1.347-1.5c.934-1.287.96-2.428.079-3.392a5.956,5.956,0,0,0-1.267-1.024,3.394,3.394,0,0,1-1.586-1.659.993.993,0,0,1,.174-.929,3.74,3.74,0,0,1,2.8-1.241,2.305,2.305,0,0,1,.987.2,2.437,2.437,0,0,0,.98.335.694.694,0,0,0,.367-.1,2.267,2.267,0,0,0,.781-.768,2.493,2.493,0,0,1,1.279-1.046c-.3-.018-.6-.028-.908-.028a11.351,11.351,0,0,0-2.9.344,9.038,9.038,0,0,0-2.674,1.065c-1.046.663-1.505,1.419-1.366,2.249a3.317,3.317,0,0,0,1.5,2.012,5.659,5.659,0,0,1,1.114,1.065,1.635,1.635,0,0,1,.2,1.677,4.226,4.226,0,0,1-1.466,1.558A.439.439,0,0,1,76,47.919c-.026-.042-.045-.072-.094-.072-1.433-1.821-4.117-1.862-6.713-1.9a16.859,16.859,0,0,1-4.538-.465A20.743,20.743,0,0,1,57.13,41.4c-1.4-1.111-2.41-1.914-4.043-1.914a7.656,7.656,0,0,0-2.614.631,20.245,20.245,0,0,0-1.885.859l-.017.008c-1.441.718-3.361,1.8-6.418,3.629v-.079a2.387,2.387,0,0,0-2.62-1.753,8.442,8.442,0,0,0-1.183.1.6.6,0,0,1-.317.079c-.211.026-.423.056-.627.084a12.452,12.452,0,0,1-1.627.158c-1.061,0-1.587-.391-1.707-1.268a1.982,1.982,0,0,0,1.743,2.6,4.778,4.778,0,0,0,.942.089c.321,0,.633-.028.908-.052h.01c.284-.025.577-.05.873-.05.125,0,.242,0,.358.013a1.909,1.909,0,0,1,.554.236c.43.428-.229,1.417-.665,2.071a5.352,5.352,0,0,0-.285.454c-.211.026-.426.062-.634.1a7.845,7.845,0,0,1-1.268.14c-.165.012-.314.017-.456.017-1.084,0-1.644-.356-1.763-1.122a2.024,2.024,0,0,0,.256,1.816c.8,1.025,2.726,1.025,3.547,1.025.07.351.851,2.364,1.505,2.446A2.814,2.814,0,0,1,41.2,53.449c.245.57,1.321,2.7,2.1,2.7a.4.4,0,0,0,.115-.017l.713-.236a1.41,1.41,0,0,0-.277-.2,1.409,1.409,0,0,1-.277-.2c-.376-.321-.385-.566-.357-.683a.363.363,0,0,1,.278-.264.545.545,0,0,1,.088-.008c.358,0,.454.407.523.7.008.033.015.064.022.093s.017.069.024.1c.046.2.079.343.243.343a.587.587,0,0,0,.209-.05,5.533,5.533,0,0,1,.786-.314l.007,0a.278.278,0,0,0,.079-.158,3.01,3.01,0,0,1,.237-1.42A3.256,3.256,0,0,1,46,53.409a3.256,3.256,0,0,0,.277-.434l.118.171c.291.424.5.73.979.73a3.162,3.162,0,0,0,1.2-.348.249.249,0,0,0,.086-.021A.161.161,0,0,1,48.705,53.493Zm28.231-.754A7.874,7.874,0,0,1,75.141,55l-.265.262c-.112.112-.226.221-.335.327a7.263,7.263,0,0,0-1.17,1.329,4.653,4.653,0,0,0,1.511.19,6.026,6.026,0,0,1,1.341.126,3.125,3.125,0,0,1,1.822,4.813c-.047.047-.127.126-.107.2.014.051.077.09.187.118h2.3c.474,0,.634-.7.634-1.025a10.207,10.207,0,0,0-.664-4.123A8.935,8.935,0,0,0,76.937,52.739Zm18.3-23.433a2.757,2.757,0,0,0-1.506.572,1.658,1.658,0,0,0-.792,1.164c0,1.12,3.516,3.314,7.765,3.314a10.756,10.756,0,0,0,6.438-1.667,5.63,5.63,0,0,0,2.278-4.8,4.467,4.467,0,0,0-1.268-3.363,7.541,7.541,0,0,0-3.882-1.766l-4.2-.868c-1.51-.376-2.377-1.21-2.377-2.288,0-1.305,1.493-2.367,3.328-2.367a6.554,6.554,0,0,1,3.543,1.129,3.657,3.657,0,0,0,1.765.685c.9,0,2.218-.956,2.218-1.814,0-.653-.9-1.465-2.347-2.121A13.206,13.206,0,0,0,100.945,14a8.545,8.545,0,0,0-5.715,1.8,5.888,5.888,0,0,0-1.971,4.586,4.369,4.369,0,0,0,1.684,3.55,8.111,8.111,0,0,0,2.991,1.42,22.178,22.178,0,0,0,2.318.422c2.444.361,4.972.734,4.972,2.734A2.237,2.237,0,0,1,104,30.45a6.448,6.448,0,0,1-3.3.749,7.51,7.51,0,0,1-3.654-1.188A4.314,4.314,0,0,0,95.24,29.306ZM11.965,14.395c-1.277,0-1.981.644-1.981,1.814,0,1.137.263,1.658,1.823,1.736h.871c2.236,0,2.694.883,2.694,2.209V31.91A2.024,2.024,0,0,0,16,33.6a2.735,2.735,0,0,0,1.753.444,2.814,2.814,0,0,0,1.783-.414,2.045,2.045,0,0,0,.594-1.716V20.233a2.253,2.253,0,0,1,.505-1.677,2.878,2.878,0,0,1,2.11-.611h.713c1.619-.077,2.139-.518,2.139-1.815,0-1.2-.66-1.735-2.139-1.735Zm74.718-.316c-1.082,0-1.585.752-1.585,2.367l-.079,13.413v.289c0,1.627,0,2.8.583,3.386a1.785,1.785,0,0,0,1.32.428h.871c1.608,0,1.9-.983,1.9-2.919V18.024c0-2.46,0-3.945-1.664-3.945Zm-39.3.158c-1.407,0-1.98.526-1.98,1.815l-.079,10.415a7.182,7.182,0,0,0,2.119,5.4,8.975,8.975,0,0,0,6.279,2.091,8.263,8.263,0,0,0,5.715-2.012,7.008,7.008,0,0,0,2.208-5.325v-10.1c0-1.711-.52-2.289-2.059-2.289a2.437,2.437,0,0,0-1.694.464,1.741,1.741,0,0,0-.446,1.351v10.1a4.732,4.732,0,0,1-1.159,3.343A3.863,3.863,0,0,1,53.4,30.647a3.581,3.581,0,0,1-2.922-1.3,5.071,5.071,0,0,1-.961-3.2v-10.1C49.521,14.745,48.921,14.236,47.382,14.236Zm24.326,12.15c1.484,0,2.04.519,3.724,3.472l1.585,2.762A2.243,2.243,0,0,0,79.155,33.8h.634c1.037,0,1.585-.327,1.585-.947a2.531,2.531,0,0,0-.312-.713c-.073-.141-.155-.3-.242-.471L78.6,27.728a2.174,2.174,0,0,1-.237-1.025,2.6,2.6,0,0,1,.951-1.657,6.241,6.241,0,0,0,.882-.712c.031-.035.07-.078.148-.156a4.86,4.86,0,0,0,.871-1.1,6,6,0,0,0,.713-2.762,5.625,5.625,0,0,0-1.793-4.448,7.383,7.383,0,0,0-4.942-1.548h-8.24c-1.119,0-1.664.568-1.664,1.736V31.515c0,1.714.444,2.209,1.98,2.209A2.38,2.38,0,0,0,68.8,33.3a1.609,1.609,0,0,0,.525-1.312V28.754A2.1,2.1,0,0,1,71.707,26.387ZM32.486,30.568h2.139a8.428,8.428,0,0,1,2.614.237c.621.232.858.527,1.347,1.42.6,1.051,1.148,1.5,1.823,1.5h1.347a1.546,1.546,0,0,0,1.306-.511,1.021,1.021,0,0,0,.04-.988l-6.18-16.253a2.02,2.02,0,0,0-1.981-1.5H32.961A2.142,2.142,0,0,0,30.98,16.13L25.117,31.91a1.63,1.63,0,0,0-.014,1.415,1.2,1.2,0,0,0,1.044.4h1.109c1.282,0,1.6-.5,2.139-1.341C30.43,30.64,30.89,30.568,32.486,30.568Zm79.947-17.91a2.309,2.309,0,0,0-2.377,2.288,2.258,2.258,0,0,0,2.377,2.289,2.29,2.29,0,1,0,0-4.576ZM60.891,56.509h0a8.757,8.757,0,0,1-3.208-.615,12.159,12.159,0,0,0,2.461.262A14.32,14.32,0,0,0,66.2,54.548a21.178,21.178,0,0,1,4.553-1.572,26.456,26.456,0,0,0-2.993,1.357C65.633,55.4,63.43,56.509,60.891,56.509Zm-15.884-3.3h0a2.1,2.1,0,0,1,.769-1.816,2.31,2.31,0,0,0,.816-1.57c.426.9-.11,1.454-.679,2.045A3.088,3.088,0,0,0,45.006,53.206Zm-6.815-4.649h0c-1.613,0-3.094-.091-3.486-1.184.245.49,1.1.552,1.822.552a13.021,13.021,0,0,0,1.744-.158,2.682,2.682,0,0,0-.079.788Zm2.591-2.524a.529.529,0,0,1-.393-.156.613.613,0,0,1-.138-.475,1.385,1.385,0,0,0-.554-1.263,2.1,2.1,0,0,0-.959-.189c-.292,0-.608.032-.942.065-.153.015-.312.031-.476.045-.255.02-.486.029-.705.029-1.381,0-2.183-.381-2.384-1.133.245.55,1.05.666,1.683.666a5.7,5.7,0,0,0,.615-.034c.237-.039.5-.079.749-.118s.517-.079.756-.119a1.075,1.075,0,0,0,.4-.079,8.472,8.472,0,0,1,1.148-.111,2.655,2.655,0,0,1,.436.033,2.128,2.128,0,0,1,1.664,1.42,1.251,1.251,0,0,1-.207,1.071A.922.922,0,0,1,40.782,46.033Zm2.741-1.195h0c1.058-.592,3.161-1.736,5.366-2.749.165-.071.334-.14.513-.213.425-.174.863-.354,1.309-.575a8.464,8.464,0,0,1,2.457-.552A5.56,5.56,0,0,1,56.359,42.2l.055.041a7.2,7.2,0,0,0-3.121-.886c-.155,0-.327.006-.524.018C51.057,41.548,47.946,42.713,43.523,44.838ZM34.7,27.649H33.2a1.66,1.66,0,0,1-1.31-.7,1.6,1.6,0,0,1-.275-1.434l1.11-3.708c.3-.981.769-1.5,1.347-1.5.635,0,1.063.526,1.347,1.657l1.03,3.472a1.7,1.7,0,0,1-.272,1.512A1.816,1.816,0,0,1,34.7,27.649ZM74,23.7H72.182a3.369,3.369,0,0,1-2.209-.6,2.246,2.246,0,0,1-.723-1.845V19.917a3.31,3.31,0,0,1,.614-2.169A2.384,2.384,0,0,1,71.786,17h2.139a4.313,4.313,0,0,1,2.931.976,3.089,3.089,0,0,1,1.03,2.338,3.18,3.18,0,0,1-1.109,2.436A4.208,4.208,0,0,1,74,23.7Zm38.637-7.017h0c-.042,0-.086,0-.129,0a1.789,1.789,0,0,1-1.823-1.815,1.887,1.887,0,0,1,.485-1.262,1.687,1.687,0,0,1,1.258-.552,1.842,1.842,0,0,1,1.822,1.814A1.688,1.688,0,0,1,112.642,16.688Zm-.208-2.766a4.348,4.348,0,0,0-.62.052,2.092,2.092,0,0,1-.252.026v2.288h.555V15.262h.238c.309,0,.394.07.475.394a2.233,2.233,0,0,1,.069.286.57.57,0,0,0,.089.267h.555a.568.568,0,0,1-.1-.286c-.014-.072-.032-.161-.059-.266-.078-.311-.157-.473-.4-.552a.579.579,0,0,0,.476-.552.479.479,0,0,0-.237-.474A1.754,1.754,0,0,0,112.434,13.921Zm-.079.947h-.238v-.71h.317c.3,0,.475.144.475.395C112.909,14.762,112.722,14.868,112.354,14.868Z" transform="translate(-156.389 551.584)" fill="#fff"/>
  </g>
</svg>
