<svg xmlns="http://www.w3.org/2000/svg" width="95.376" height="105.514" viewBox="0 0 95.376 105.514">
  <g id="Group_23" data-name="Group 23" transform="translate(-35.153 -539.954)">
    <g id="unilever-4" transform="translate(35.154 539.954)">
      <path id="Path_1" data-name="Path 1" d="M38.3,119.131a3.835,3.835,0,0,0,3.34-2.043,20.509,20.509,0,0,1-1.151-5.3c-.327-5.306,1.717-10.3,3.956-10.433,1.639-.1,2.952,1.453,3.1,3.967.4,6.611-1.8,9.371-2.9,11.75a3.911,3.911,0,0,0,3.228,2.495,2.123,2.123,0,0,0,1.371-.494,5.42,5.42,0,0,1-.221-1.587c0-3.831,2.463-7.06,4.6-7.06,1.7,0,2.681,2.243,2.681,3.724,0,1.749-1.478,3.175-3.665,4.543a2.623,2.623,0,0,0,1.7.657c3.121,0,4.755-3.777,5.965-7.226.219-.659.6-1.589,1.367-1.589,1.315,0,1.863,8.647,4.047,8.647.932,0,1.7-1.917,1.7-3.391,0-1.095-.382-1.2-.382-2.793,0-1.749.931-3.225,2.191-3.225.766,0,1.042.762,1.042,1.691,0,3.5-2.519,10.016-6.237,10.016-2.8,0-2.577-4.815-3.561-4.815-1.1,0-2.631,4.871-8.044,4.871a3.472,3.472,0,0,1-2.571-1.315,6.3,6.3,0,0,1-3.67,1.259c-2.022,0-2.9-2.079-3.719-2.079-.987,0-2.078,2.135-5.365,2.135-2.626,0-3.065-3.5-3.992-3.5-.823,0-2.081,3.5-3.448,3.5-2.3,0-2.79-6.074-4.818-6.074-1.587,0-6.6,6.17-7.962,6.029-.548-.057-.778-.467-.72-1.014a38.211,38.211,0,0,1,.993-3.742c.442-1.664.849-3.488,1.075-4.07a1.455,1.455,0,0,1,1.321-.959c.246.023.32.481.4.859.276,1.353.663,2.733,1.1,2.733.768,0,3.307-4.871,4.784-4.871,1.809,0,2.026,7.662,4.486,7.662.823,0,1.427-.983,1.972-2.19.056-2.029.6-4.922,2.244-4.922,1.151,0,1.7,2.569.875,4.815,0,2.68,1.75,3.336,2.9,3.336m43.777-6.565c-.678,2.813-2.734,6.951-5.8,6.951-.71,0-1.97-.275-1.97-.987,0-.767,4.819-.873,4.819-4.542a3.41,3.41,0,0,0-3.119-3.284c-2.462,0-4.865,2.683-4.865,6.4,0,3.336,2.073,4.431,4.151,4.431,3.615,0,5.8-2.958,6.951-5.419.549,1.642.874,5.419,2.246,5.419.546,0,.931-.275,1.59-1.75,1.636-3.669,3.224-7.881,5.416-7.881.819,0,.328,1.479,2.3,1.479a1.6,1.6,0,0,0,1.582-1.646c0-1.259-1.147-2.241-2.9-2.241-5.143,0-6.235,7.716-7.057,7.716-1.37,0-.931-6.183-1.918-6.183-.876,0-1.306,1.044-1.423,1.532m-36.3-5.763c-.1-1.528-.465-2.219-1.286-2.164-1.09.066-1.594,3.5-1.371,7.1.142,2.351.492,2.713.818,2.691.6-.035,2.049-4.237,1.84-7.626m-8.9-3.214a1.607,1.607,0,0,0-1.7-1.475,2.172,2.172,0,0,0-1.913,2.46,1.6,1.6,0,0,0,1.643,1.645,2.324,2.324,0,0,0,1.965-2.629M53.9,114.751c0-.928-.495-1.694-1.092-1.694-.5,0-1.643.544-1.643,2.3a3.4,3.4,0,0,0,.711,2.3,2.835,2.835,0,0,0,2.025-2.9M75.294,112.9c1.151,0,1.48,1.362,1.207,2.185a3.516,3.516,0,0,1-2.792,2.027c-.329-.823-.493-4.212,1.585-4.212M12.284,109.01a17.145,17.145,0,0,1-.737-2.441,2.867,2.867,0,0,1,1.56-3.309c.986-.275,1.37.219,1.75,1.37a23.917,23.917,0,0,1,.382,7.331c-.216,4.488-2.46,9.906-8.041,9.794-4.817-.106-6.949-3.226-7.17-7.987a21.853,21.853,0,0,1,.986-7.66c.492-1.7.932-2.3,2.462-2.629,1.2-.219,1.1,1.038.822,2.52a29.144,29.144,0,0,0-.657,8.59c.215,3.939,2.025,5.473,3.995,5.473,2.954.056,4.267-2.407,4.816-5.966a10.386,10.386,0,0,0-.168-5.086M76.827,37.816c.379,2.758,4.557,6.475,5.69,6.388.756-.065,1.046-3.6,1.046-6.388,0-1.6.088-2.846-.755-3.138-1.337,2.7-4.847,3.254-5.982,3.138m.232-1.22c3.017,0,5.778-2.41,5.778-4.53a1.768,1.768,0,0,0-1.656-1.945,1.279,1.279,0,0,1,.29.928c0,1.6-2.435,3.37-5.079,3.37a1.11,1.11,0,0,0-1.25,1.016c0,.814.785,1.161,1.917,1.161m-.638-3.281a1.26,1.26,0,0,1-1.309-.638c-.262-.523-.175-1.366-.668-1.744a5.065,5.065,0,0,0,1.425.145c1.309,0,2.559-.9,3.517-.9a.752.752,0,0,1,.836.813c0,1.28-2.579,2.324-3.8,2.324M11.467,56.08c.986,0,.782-6.041,2.38-6.041.378,0,.493.378.493.843,0,1.364-.668,3.368-.668,4.471,0,.552.145.727.406.727.7,0,1.917-6.651,3.108-6.651.378,0,.551.377.551.756,0,1.393-1.771,5.4-1.771,6.533,0,.173.059.319.2.319.727,0,2.178-3.135,2.642-4.7.262-.814.611-1.25.93-1.25.29,0,.552.32.552.988,0,1.568-1.453,5.255-2.729,7.725-.987,1.915-2.526,4.674-2.526,6.212A3.082,3.082,0,0,0,16.316,68.6c-1.86-.116-2.615-.29-3.31-1.743-3.106,6.185,5.72,5.575,2.7,11.063-.552-.986-4.907-2-4.907-7.753,0-4.965,4.355-7.868,4.355-9.931a1.325,1.325,0,0,0-.522-1.074c-.958-.814-.988-1.479-1.741-1.479-.553,0-1.221,1.276-.525,2.409.234.378.437.609.437.958,0,.812-1.279,2.989-2.177,2.989s-1.6-2.233-1.6-5.836c0-3.194.725-6.417,1.625-6.417.262,0,.349.175.349.406,0,.378-.116,1.133-.116,2.409,0,1.366.319,1.483.581,1.483" transform="translate(0 -16.242)" fill="#fff"/>
      <path id="Path_2" data-name="Path 2" d="M28.756,64.62c1.221,0,2.236-.9,2.236-2.9V58.754a5.074,5.074,0,0,1,.844-3.31,5.231,5.231,0,0,0-.087,1.162c0,2.5,1.393,4.211,1.393,6.621,0,.9-.262,1.393-.957,1.393-.669,0-.611-.611-.757-.611-.116,0-.29.378-.29.785a1.571,1.571,0,0,0,1.655,1.568A1.993,1.993,0,0,0,34.68,64.33c0-2.612-2.032-5.517-2.032-8.3a6.52,6.52,0,0,1,.581-2.673c0,5.78,4.907,9.989,4.907,12.4a.968.968,0,0,1-1.015.988.947.947,0,0,1-.988-.931c0-.2-.03-.26-.116-.26a1.487,1.487,0,0,0-.7,1.337,2.173,2.173,0,0,0,2.236,2.119,2.572,2.572,0,0,0,2.554-2.643c0-3.048-5.953-7.665-5.953-12.6a6.838,6.838,0,0,1,.755-3.253,9.984,9.984,0,0,0-5.022,8.625c0,2.5-.087,3.743-1.364,3.743-.669,0-.843-.608-1.075-.608-.175,0-.262.522-.262.667a1.592,1.592,0,0,0,1.568,1.685M79.078,35.613c1.279,0,2.238-.581,2.238-.93,0-.115-.175-.2-.553-.2a16.024,16.024,0,0,1-2.557-.261c-1.221-.2-2.151-.668-2.5-.668-.116,0-.175.058-.175.145,0,.755,1.4,1.917,3.547,1.917m-6.329-3.687c.369-.247,2,.144,4.121-.9a1.557,1.557,0,0,1,.754-.2c1.018,0,.755,1.161,1.687,1.161.725,0,1.656-.611,2.208-.611.866,0,2.115,2.73,2.115,4.008,0,1.482-2.231,2.381-4.877,2.381a6.2,6.2,0,0,1-6.185-5.545.305.305,0,0,1,.176-.29M29.366,75.567a4.227,4.227,0,0,0-2.5,4.125c0,2.845,3.049,7.23,8.073,7.23,4.238,0,5.284-2.932,5.284-4.909,0-4.385-2.7-7.463-6.212-7.463a3.5,3.5,0,0,0-3.63,3.456A4.806,4.806,0,0,0,35.29,82.8a2.447,2.447,0,0,0,2.583-2.5,3.213,3.213,0,0,0-2.932-3.106.851.851,0,0,0-.9.9c0,.7.958,1.394,2.149,1.394a1.557,1.557,0,0,0,.64-.116.7.7,0,0,1,.087.349c0,.668-.64,1.075-1.626,1.075a2.844,2.844,0,0,1-2.9-2.849c0-1.043.9-1.8,2.207-1.8a4.318,4.318,0,0,1,4.124,4.589c0,2.06-1.132,3.253-3.455,3.253-4.647,0-6.911-4.183-5.9-8.424m30.895,11.21a1.161,1.161,0,1,0,1.162-1.162,1.165,1.165,0,0,0-1.162,1.162m2.251,5.8a13.688,13.688,0,0,0,1.756-.116c.435,0,.465.262.465.436,0,.639-1.425,1.425-3.95,1.425a2.565,2.565,0,0,1-2.643-1.656,11.449,11.449,0,0,1-5.836,1.771c-5.952,0-7.462-2.586-9.32-3.426-1.425-.639-3.6.611-6.65-2.788a7.292,7.292,0,0,0,1.395.117c2.669,0,4.092-1.306,4.092-3.4a7.317,7.317,0,0,0-.059-.809,5.758,5.758,0,0,1,3.108,4.177c.059.292,1.249.552,2,.552a2.362,2.362,0,0,0,2.585-2.147c3.485-.29,5.838-2.351,6.332-4.967a6.892,6.892,0,0,1,3.018,2.122,5.227,5.227,0,0,1,1.742-.262,11.156,11.156,0,0,1,3.223.553c.059-.378.117-.843.7-.843.871,0,.638.958.928,1.508.146.29.874.465.874,1.046a.744.744,0,0,1-.756.756,1.279,1.279,0,0,1-.35-.057c-.58.2-.608,4.383-3.048,4.383a4.888,4.888,0,0,1-4.181-3.337,1.245,1.245,0,0,0-1.046-.9c-.463,0-.725.088-1.276.7a10.1,10.1,0,0,1-7.4,3.192c-.989,0-1.771-.088-1.976-.088-.116,0-.116.029-.116.058,0,.2.987.989,3.136.989,5.11,0,6.359-2.876,7.172-2.876a.674.674,0,0,1,.666.465,5.7,5.7,0,0,0,5.417,3.424M80.124,74.085c-.609,0-3.983,4.5-6.155,4.5-.523,0-.958-.988-.958-1.74,0-.407.259-.7,1.192-.9,4.992-1.134,3.888-4.88,8.154-4.88a4.872,4.872,0,0,1,4.967,5.2c0,3.834-5.455,8.594-6.27,8.594-.669,0-1.394-.957-1.394-1.6,0-.2.088-.465.668-.7,2.783-1.106,4.38-3.659,4.38-4.967a.514.514,0,0,0-.523-.577c-.492,0-2.607,4.818-4.961,4.818-1.627,0-3.284-1.479-3.284-2.177,0-1.161,4.707-3.31,4.707-4.938,0-.611-.289-.639-.522-.639m3.131-1.8c-.406,0-.841.32-.841,1.106a1.84,1.84,0,0,0,1.046,1.595,1.8,1.8,0,0,0,.84.233c.844,0,1.512-.233,1.512-.931,0-.9-1.307-2-2.556-2M29.018,38.661A1.161,1.161,0,1,0,30.181,37.5a1.167,1.167,0,0,0-1.163,1.161m-1.509-2.613a1.161,1.161,0,1,0,1.16-1.162,1.165,1.165,0,0,0-1.16,1.162M26.463,44A2.763,2.763,0,0,0,24.4,46.442a1.708,1.708,0,0,0,1.829,1.714,1.891,1.891,0,0,0,1.132-.29,3.381,3.381,0,0,1-1.1-2.525,3.94,3.94,0,0,1,.2-1.337m-7.113.408a2.2,2.2,0,0,0-.029.435c0,1.364.725,2.12,1.684,2.12a3.128,3.128,0,0,0,2.322-1.394,6.17,6.17,0,0,1-1.046.086,3.477,3.477,0,0,1-2.93-1.246m-1.017,2.583c0,2.207.668,3.253,1.858,3.253.93,0,2.178-.668,3.658-1.946a12.811,12.811,0,0,1-2.786.435,3.051,3.051,0,0,1-2.729-1.742M25.854,35.38a5.709,5.709,0,0,0,.26-1.684c0-1.393-.639-3.514-2.613-3.514a1.935,1.935,0,0,0-1.947,1.975c0,2.295,2.295,3.223,4.3,3.223M23.384,42.7a2.4,2.4,0,0,1-2-2.265c0-.581.435-1.307.755-1.307.116,0,.175.088.2.292a3.3,3.3,0,0,0,1.976,2.641c.088.059.144.088.144.146,0,.2-.552.493-1.075.493m2.673-3.543c.2.274.755.611.755.814,0,.406-.233.929-.7.929-1.017,0-1.829-1.539-1.829-2.411,0-.551.32-.608.754-.608a.7.7,0,0,1,.436.116c.262.144.262.725.582,1.16m-6.823,3.6a.568.568,0,0,0,.464.871c.233,0,.378-.057.493-.057.7,0,1.48.492,2.613.492a5.536,5.536,0,0,0,2.439-.7,6.065,6.065,0,0,0,2.9-4.066c0-.552-.444-.481-.815-.988s-.228-.954-.464-1.19a2.554,2.554,0,0,0-1.075-.2,6.134,6.134,0,0,0-.638-.029,5.881,5.881,0,0,0-3.368.93c-2.519,1.607-2.149,4.268-2.554,4.936M28.873,41.6a5.509,5.509,0,0,0-1.307,3.338,2.609,2.609,0,0,0,2.44,2.874,2.2,2.2,0,0,0,2.09-2.466c0-1.945-1.771-3.311-3.223-3.746M22.66,36.019a3.494,3.494,0,0,1-1.888.638,2.183,2.183,0,0,1-2.236-2.234,2.448,2.448,0,0,1,1.539-2.295,2.869,2.869,0,0,0-.029.494,3.379,3.379,0,0,0,2.613,3.4m51.193,9.639a1.217,1.217,0,1,0,1.214-1.218,1.227,1.227,0,0,0-1.214,1.218m.087,3.659A1.363,1.363,0,1,0,75.3,47.953a1.363,1.363,0,0,0-1.363,1.363m-4.183,2.469a2.005,2.005,0,1,0,2.005-2,2.008,2.008,0,0,0-2.005,2m1.074-4.094a1.162,1.162,0,1,0,1.163-1.162,1.164,1.164,0,0,0-1.163,1.162m-3.8,2.323a1.16,1.16,0,1,0,1.156-1.161,1.163,1.163,0,0,0-1.156,1.161m2.989-6.793a1.86,1.86,0,1,0,1.859-1.859,1.871,1.871,0,0,0-1.859,1.859M72.2,39.649a1.125,1.125,0,1,0,1.1-1.1,1.1,1.1,0,0,0-1.1,1.1m-5.254,2.788a1.1,1.1,0,1,0,1.1-1.1,1.1,1.1,0,0,0-1.1,1.1M66.8,46.21a1.759,1.759,0,1,0,.514-1.253A1.76,1.76,0,0,0,66.8,46.21m-3.66,1.859a1.656,1.656,0,1,0,1.655-1.655,1.671,1.671,0,0,0-1.655,1.655m.987-4.094a1.162,1.162,0,1,0,1.16-1.161,1.166,1.166,0,0,0-1.16,1.161m10.194,8.943a1.116,1.116,0,0,1,1.1-1.074,1.1,1.1,0,1,1-1.1,1.074m.749,33.393c.146,0,.32.086.32.611a2.55,2.55,0,0,1-1.331,2.147A5.6,5.6,0,0,1,70.888,90a6.847,6.847,0,0,0,.406-2.116,5.545,5.545,0,0,0-.057-.668h.379a6.556,6.556,0,0,0,3.451-.9m.233-2.875a1.056,1.056,0,0,0,.29-.842v-.668c0-.842-1.272-1.334-3.017-1.334-2.121,0-3.254.956-3.254,1.363v1.338c0,.552,1.279,1.1,2.847,1.1a4.835,4.835,0,0,0,3.133-.96m1.51.32a8.544,8.544,0,0,1-5.457,1.885,7.2,7.2,0,0,1-2.5-.493c-.29,0-.611.29-.929.669A6.549,6.549,0,0,0,66.332,89.8a2.378,2.378,0,0,0,2.579,2.319c5.435,0,9.5-3.4,9.5-6.152,0-1.567-.928-2.206-1.6-2.206m1.017-24.42c0,.725.233,1.568.96,1.568.609,0,1.133-.928,1.133-1.945,0-1.162-.2-2.063-.2-2.528,0-.2.087-.289.2-.289.436.029.844,1.219,1.309,1.219.524,0,1.3-.958,1.621-.958.088,0,.116.116.116.145,0,.436-.668,1.4-.668,1.772,0,.319,1.685.378,1.685.668,0,.436-1.766.436-2.608.814-.814.347-1.309.784-1.309,1.364s.581.7,1.4.7c1.94,0,3.3-1.045,3.739-1.045a.137.137,0,0,1,.145.146c0,.29-.987,1.247-.987,1.684,0,.493,1.8,1.073,1.773,1.363-.029.088-.146.116-.349.116-.321,0-.814-.086-1.193-.086a.67.67,0,0,0-.523.145c-.2.233.059,1.771-.345,1.771-.379,0-1.367-3.424-3.6-3.424-.32,0-.552.26-.552.7a4.373,4.373,0,0,0,2.208,3.135c.487.319,1.3.639,1.3.814,0,.346-1.854.029-1.854.608,0,.523.233,1.309.233,1.772,0,.146-.03.319-.2.319-.348,0-1.192-1.6-1.6-1.6-.348,0-1.1.957-1.425.957a.161.161,0,0,1-.143-.172c0-.669,1.074-2.178,1.074-3.66,0-.7-.087-2.207-.931-2.207-.7,0-1.482,1.1-1.831,2.207-.2.638-.058,3.106-.523,3.106-.436,0-.32-1.655-.9-1.655-.429,0-1.358.784-1.679.784-.057,0-.116-.03-.116-.088,0-.347.842-1.48.842-1.713,0-.435-1.918-.492-1.918-.841,0-.2.755-.349,1.453-.465,1.477-.262,3.657-1.336,3.657-2.844,0-1.685-1.629-2.411-2.7-3.109-.553-.347-1.162-.637-1.162-.87s.7-.233.988-.233c.435,0,.866-.029.866-.376,0-.263-.06-.784-.06-1.19,0-.292.03-.525.147-.525.435,0,1.045,1.423,1.335,1.423.465,0,1.1-1.161,1.542-1.161.143,0,.2.088.2.349,0,1.074-.552,2.293-.552,3.34m-13.85-8.508c.321,2.468,3.633,1.219,3.633,4.21,0,.436-.116,1.075-.116,1.625,0,.64.057,1.193.546,1.193s.61-.349.61-.814-.117-1.046-.117-1.365A1.124,1.124,0,0,1,69.7,54.429c1.106,0,1.948,1.133,3.6,1.133-.377,1.858-4.215,1.363-4.215,3.4,0,1.017,1.018,1.247,1.686,1.247.611,0,.815-.088.815-.608,0-.292-.06-.611-.06-.814a.23.23,0,0,1,.234-.233c.64,0,3.771,2.382,3.771,3.108,0,.667-3.307,1.335-4.266,1.335a.309.309,0,0,1-.349-.319c0-.2.493-.814.493-1.162,0-.26-.435-.435-1.6-.435-.552,0-.958.057-.958.495,0,.782,1.279,1.741,1.279,2.466,0,.581-.349.93-1.279.93-.785,0-1.97-.611-1.97-1.626,0-.812.837-1.625.837-2.118a.4.4,0,0,0-.459-.379c-1.075,0-1.366,2.845-5.172,3.164A2.91,2.91,0,0,0,63.223,61.6c0-.611-.145-1.106-.145-1.772,0-.871.406-1.307.987-1.307,1.074,0,1.6,1.509,2.3,1.509a.839.839,0,0,0,.785-.87c0-2.207-4.242-1.888-4.242-4.995a7.2,7.2,0,0,1,1.075-3.339" transform="translate(-9.886 -16.275)" fill="#fff"/>
      <path id="Path_3" data-name="Path 3" d="M86.246,71.6a.7.7,0,0,0,.7.727.8.8,0,0,0,.757-.873c0-.608-.553-1.451-1.077-1.451-.233,0-.144.349-.2.726-.029.289-.173.638-.173.871m-1.51-3.861a5.369,5.369,0,0,1,4.707,5.023,2.627,2.627,0,0,1-2.557,2.843,2.457,2.457,0,0,1-2.551-2.642c0-1.219.952-2.5.952-3.745a2.249,2.249,0,0,0-.551-1.48M80.876,72.68a1.169,1.169,0,0,1,.378.87c0,.436-.2.9-.2,1.394a1.276,1.276,0,0,0,1.276,1.306,1.354,1.354,0,0,0,1.368-1.392c0-1.1-1.137-2.178-2.819-2.178m9.613-1.858a1.718,1.718,0,0,1,.29.927c0,.814-.552,1.568-.552,2.412A1.731,1.731,0,0,0,92.053,75.9a2.009,2.009,0,0,0,2.005-2.09c0-1.539-1.394-2.845-3.569-2.99M81.573,69.28c1.337.174,1.657.639,1.657,1.018,0,.638-.582.84-1.135.84-.406,0-.871-.086-1.365-.086a2.2,2.2,0,0,0-1.8.755.992.992,0,0,1,.93.9c0,1.684-4.676.289-4.676,4.617,0,2.293,2.381,4.792,5.982,4.792,1.861,0,3.052-.611,3.052-1.309,0-.551-.987-.174-.987-.639,0-.2.347-.582.347-.9,0-.142-.116-.4-.347-.4-.525,0-1.512.84-3.517.84-1.568,0-3.107-.9-3.107-2.119,0-.26.116-.407.29-.407s.406.117.61.117c.176,0,.2-.117.2-.436s0-1.22.551-1.22,1.6,2.034,5.608,2.034c1.331,0,3.916-.262,4.877-1.133a7.548,7.548,0,0,1-7.754,7.4,8.2,8.2,0,0,1-8.335-8.363,8.548,8.548,0,0,1,8.6-8.477c1.276,0,2.353.434,2.353.986,0,.756-1.888.292-2.034,1.19M62.786,36.122c1.917,0,2.786,1.655,2.786,3.513,0,.812-.23,2-.608,2s-.32-.668-.377-1.279c-.059-.783-.2-.957-.465-.957-.494,0-.812,1.16-.812,2.236,0,.667.116,1.423.638,1.423a1.05,1.05,0,0,0,.725-.32,2.6,2.6,0,0,1-2.5,2.5c-2.555,0-3.513-2.992-3.8-4.734-1.539,1.626-2.961,2.818-5.517,2.818a3.269,3.269,0,0,1-3.456-3.4c0-.495.174-1.772.785-1.772.725,0,.088,2.38,1.509,2.38.349,0,.987-.29,1.336-1.247a5.4,5.4,0,0,0,.32-1.714c0-.785-.175-1.277-.754-1.277a2.284,2.284,0,0,0-1.309.58,4.375,4.375,0,0,1,4.239-3.165c2.3,0,3.514,2.034,3.514,4.3a5.715,5.715,0,0,1-.088.987c.987-1.626,2.353-2.874,3.834-2.874m-2.237,3.426c0-.493-.116-.609-.232-.609-.29,0-.609.349-1.074,1.133.059,1.046.233,1.51.523,1.51.318,0,.782-1.018.782-2.034m-3.978,1.19c.319,0,.727-.349,1.482-1.19a7.354,7.354,0,0,0,.059-1.161c0-.581-.233-1.22-.581-1.22-.873,0-1.308,2.324-1.308,2.935,0,.346.173.636.348.636m4.734,2.586c.725,0,1.538-2.789,1.538-4.531,0-.378-.057-.783-.232-.783-.611,0-1.626,2.875-1.626,4.442,0,.611.146.872.321.872m-7.114-1.6c.987,0,2.117-5.343,2.117-6.243,0-.233-.086-.408-.289-.408-.9,0-2.149,5.082-2.149,6.215,0,.2.059.436.32.436" transform="translate(-26.638 -18.178)" fill="#fff"/>
      <path id="Path_4" data-name="Path 4" d="M40.875,25.787c-1.249,0-1.306,1.512-1.306,4.559-.928-2-2.468-4.151-4.268-4.151-1.219,0-1.684.814-1.684,2.235a5.318,5.318,0,0,0,.088.987,1.1,1.1,0,0,1,1.19-.7,5.3,5.3,0,0,1,3.746,2.264,19.357,19.357,0,0,0-3.165-.406,3.647,3.647,0,0,0-1.539.262,3.857,3.857,0,0,0-1.975,3.513,5.838,5.838,0,0,0,.088.958,6.251,6.251,0,0,1,5.458-3.282,5.6,5.6,0,0,1,.812.058,4.737,4.737,0,0,0-1.161,3.194c-.029.465-.2.495-.522.495,0,.957.755,2.381.755,3.106a.618.618,0,0,1-.29.552c0,1.278,1.277,2.207,1.277,3.02a.684.684,0,0,1-.146.465c.088.523,1.492,1.4,1.674,1.842.223.535.474.627.62.627.493,0,1.276-.582,1.276-1.1a.689.689,0,0,0-.259-.465,4.285,4.285,0,0,1-1.075-1.858.543.543,0,0,1-.558-.427c-.159-.6-.167-1.721-.4-2.391-.378-.086-.552-.232-.552-1.014,0-.379.233-1.86.233-2.383a.412.412,0,0,1-.406-.465c0-.928.93-1.654,1.19-2.845a4.271,4.271,0,0,1,2.061,3.572,7.652,7.652,0,0,1-.2,1.656c1.22-.611,3.049-1.51,3.049-3.34,0-1.075-.493-2.266-3.775-2.73a10.259,10.259,0,0,1,3.368-.58c1.858,0,2.932.58,3.164,1.885a3.619,3.619,0,0,0,.669-1.857,2.456,2.456,0,0,0-2.7-2.353c-1.771,0-3.339.928-5.023,2.062.757-1.568,1.277-2.5,2.207-2.5a2.268,2.268,0,0,1,.436.059c-.349-1.277-1.655-2.527-2.353-2.527M89.8,46.722c1.453,0,2.614,1.888,2.614,4.1a9.127,9.127,0,0,1-3.073,6.647c-.03-3.918-4.827-2.669-4.827-5.515a1.928,1.928,0,0,1,1.92-2.033,2.944,2.944,0,0,1,2.179.785,2.57,2.57,0,0,1-.785-1.858A1.974,1.974,0,0,1,89.8,46.722m-21.544-29.7a2.17,2.17,0,0,0-1.506-.579,2.349,2.349,0,0,0-2.325,1.714,2.742,2.742,0,0,1-.2-.988,2.807,2.807,0,0,1,2.995-2.845,5.1,5.1,0,0,1,2.842.987c.289,0,.581-.292.814-.292.319,0,.319.495.319.844,0,1.16-.522,3.164-1.831,3.89a2.958,2.958,0,0,0-1.448-1.393.461.461,0,0,1-.29-.436,1.177,1.177,0,0,1,.634-.9m-4.383,2.12a3.086,3.086,0,0,0,2.236,1.046c.322,0,.7-.086.9-.086.261,0,.435.114.435.318a1.823,1.823,0,0,1-.639,1.133,2.924,2.924,0,0,0,1.134.2,3.418,3.418,0,0,0,3.539-3.659,3.889,3.889,0,0,1,.554,1.858,4.164,4.164,0,0,1-4.47,4.384,6.273,6.273,0,0,1-2.27-.465c-.55,0-.521,1.1-.9,1.075-.669-.116-1.277-1.6-1.277-3.165a4.618,4.618,0,0,1,.754-2.643M39.017.671c0-.175-.871-.349-2.061-.349-1.887,0-1.626,1.569-3.077,1.569-1.51,0-1.134-1.628-3.05-1.628-1.162,0-2.235.2-2.235.465,0,.349,1.364.2,1.364,1.163,0,1.016-2.932,1.307-2.932,1.917,0,.2.23.289.521.289.64,0,1.656-.289,2.382-.289.407,0,.785.086.785.464,0,.726-1.569,2.034-1.569,2.614,0,.175.145.233.29.233.581,0,1.568-1.482,2.5-1.482,1.539,0,.524,3.281,1.365,3.281.872,0,.495-3.224,1.742-3.224,1.018,0,1.772,2.236,2.469,2.236a.329.329,0,0,0,.32-.349c0-.608-.872-1.858-.872-2.671,0-.493.349-.727.814-.727.667,0,1.568.406,2.06.406.175,0,.349-.057.349-.26,0-.7-2.583-1.452-2.583-2.352s1.422-.9,1.422-1.307m6.824,2.962c0,.522,1.829,1.655,2.672,1.655.492,0,.638-.668.638-1.366,0-.87-.376-.9-1.133-.9-.957,0-2.177.262-2.177.61m3.021,5.748c0-1.742-4.712-4.906-4.763-6.271a.518.518,0,0,1,.168-.36c.808-.85,4.159-1.471,4.159-2.2,0-.376-.7-.376-1.047-.376-2.7,0-6.648.987-6.648,1.945,0,.988,3.542,3.4,3.542,4.588,0,.32-.2.436-.523.436-.986,0-3.135-1.192-4.151-1.192-.464,0-.639.319-.639.784,0,1.395,1.655,4.036,1.655,4.82,0,.087-.029.2-.145.2-.523,0-2.989-2.9-3.862-2.9-.319,0-.348.435-.348,1.074v.987c0,.668-.03,1.074-.347,1.074-.756,0-1.106-2.12-1.829-2.12-.756,0-.9,3.775-1.626,3.775-.843,0-.116-4.152-.93-4.152-.9,0-1.917,2.759-2.556,2.759-.232,0-.289-.233-.289-.436,0-.841.492-2.206.492-3.018,0-.408-.116-.64-.464-.64-.9,0-2.876,1.452-3.63,1.452-.116,0-.261-.059-.261-.175,0-.7,3.164-2.9,3.164-3.89,0-.96-4.356-.319-4.356-1.424,0-.928,3.109-1.888,3.109-2.845,0-.844-3.689-1.22-5.11-1.22-1.715,0-2.642.2-2.642.7,0,.756,3.891.988,3.891,1.655,0,.639-4.036,2.352-4.036,3.339,0,.872,5.689.059,5.689.959,0,.987-4.963,5.254-4.963,6.677,0,.32.233.464.551.464,1.511,0,5.429-2.873,6.5-2.873.378,0,.407.464.407.869,0,.757-.262,1.917-.262,2.76,0,.668.175,1.133.754,1.133,1.075,0,2.062-1.829,2.788-1.829.928,0,.379,5.371,1.772,5.371,1.19,0,1.684-5.807,2.437-5.807s1.367,1.685,2.062,1.685c.871,0,.465-2.932,1.395-2.932,1.016,0,3.918,3.484,5.226,3.484.405,0,.55-.32.55-.728,0-1.538-2.147-5.021-2.147-6.125,0-.29.086-.378.405-.378,1.134,0,4.444,1.568,6.012,1.568.523,0,.844-.29.844-.668M22.35,7.7c0,.581-2.206,2.525-2.988,2.525-.29,0-.378-.348-.378-.667A2.577,2.577,0,0,1,19.565,7.9,3.241,3.241,0,0,1,21.48,7.38c.405,0,.87.085.87.318m21.342,2.99c0,1.016,3.63,5.981,4.327,5.981.582,0,1.016-1.016,1.016-1.888a1.185,1.185,0,0,0-.172-.638c-.523-.725-4.211-3.629-5.025-3.629a.163.163,0,0,0-.146.174m46.63-8.8a.719.719,0,1,0,.21-.516.718.718,0,0,0-.21.516M85.59,8.308c0-2.062-4.932-2.585-4.932-3.049,0-.376,2.755-1.017,4.177-1.046-2.177-2.786-5.281-2.5-5.281-2.989,0-.292,2.324-.872,4.47-.872,1.8,0,3.484.406,3.484,1.771,0,.757-.609,1.54-.609,2.7a1.073,1.073,0,0,0,1.162,1.19c.9,0,1.1-.958,1.1-1.975,0-.841-.146-1.48-.146-1.887A1.931,1.931,0,0,1,91.048.12c.988,0,1.22.434,2.673.434a2.214,2.214,0,0,0-1.074,1.714c0,1.22.785,2.062.785,4.56,0,4.586-4.3,6.212-9.554,6.212a30.059,30.059,0,0,1-4.5-.348c-.232-.029-.29-.088-.29-.232,0-.379,2.064-.582,2.064-2.439a14.526,14.526,0,0,0-.233-1.685.229.229,0,0,1,.233-.232c.436,0,1.309,1.684,2.93,1.684a1.383,1.383,0,0,0,1.508-1.48m4.9-2.932c0,2.583-1.881,4.559-5.284,5.11.379.028.728.028,1.077.028,3.975,0,5.429-1.8,5.429-3.308A1.846,1.846,0,0,0,90.5,5.376M88.5,42.8a17.612,17.612,0,0,1,2-4.036c-.952-.492-3.481-1.539-3.481-3.253,0-2,2.5-3.57,3.016-3.57.232,0,.29.2.29.581,0,1.045-.493,2.729-.493,3.629,0,.813.523,1.6.988,1.6.493,0,1.859-1.742,1.859-3.456a3.914,3.914,0,0,0-3.539-4.008c-.786,0-2.208,1.278-5.55,1.278-6.241,0-7.665-6.182-7.665-8.884,0-.116.029-.146.058-.146a4.43,4.43,0,0,0,2.731.757c1.017,0,1.947-.262,3.43-.262,3.479,0,5.02,2.411,7.17,5.487,1.3.813,4.411,2.12,4.411,5.807,0,3.253-3.459,5.053-4.3,8.537,1.331-.143,2.116-2.526,3.48-2.526.7,0,1.018.552,1.018,1.425A6.318,6.318,0,0,1,91.8,46.143a1.877,1.877,0,0,0,.03-.436c0-.812-.319-1.973-1.25-1.973-1.447,0-1.913,1.567-2.725,2.872-.842-2.96-1.977-5.633-4.008-7.259-2.057-1.655-5.6-.755-5.6-3.775,0-.814.523-1.974.523-2.9a1.368,1.368,0,0,0-.233-.842c2.79,1.047,1.8,2.9,3.517,4.82,1.069,1.22,4.032,2.382,5.748,7.4a5.655,5.655,0,0,0,.057-.784c0-4.3-5.689-8.509-6.182-10.251,3.3.378,3.885,1.191,5.455,5.547.319.9,1.366,3.137,1.366,4.239m-.756-14.083c0-.61-1.541-.667-1.686-2.38-.03-.262-.116-.725-.436-.725-.523,0-.117,1.6-.7,1.6-1.335,0-1.769-2.613-2.264-2.613-.117,0-.255.088-.255.436,0,.319.059.523.059.9s-.088.639-.436.639c-.785,0-1.482-1.828-2.151-1.828a.263.263,0,0,0-.29.232c0,.349.581.987.581,1.307,0,.7-1.888.319-1.888.9,0,.262.261.347.61.347.611,0,1.57-.26,2.064-.26.29,0,.727.059.727.435,0,.406-1.046.928-1.046,1.306a.292.292,0,0,0,.319.26c.785,0,2.173-1.363,3.161-1.363.173,0,.608.087.608.349,0,.376-.986,1.043-.986,1.6a.294.294,0,0,0,.262.32c.519,0,1.217-1.365,2.206-1.365.379,0,.931.146,1.221.146.234,0,.321-.146.321-.233" transform="translate(-10.158 -0.033)" fill="#fff"/>
      <path id="Path_5" data-name="Path 5" d="M95.2,11.293c.466,0,.553,1.133.642,1.8.058.349.116.378.262.378.349,0,.9-1.336,1.272-1.336.551,0,2.034,1.539,4.5,1.539A6.615,6.615,0,0,0,108.7,6.852c0-4.21-2.965-6.678-7.057-6.678-1.945,0-3.371.958-4.126.958C97.058,1.16,96.36,0,96.011,0c-.144,0-.29.289-.29.782,0,.321,0,1.336-.349,1.336-.7,0-3.4-2-3.4-1.277,0,.668,1.8,2.7,1.8,3.223S92,5.081,92,5.43C92,6.068,93.89,6.183,93.89,7S91.915,8.449,91.915,9.06c0,.492,1.975.144,1.975.754s-1.452,2.642-1.452,3.221c0,.146.029.146.145.146.551,0,2.206-1.888,2.613-1.888m.845-4.76c0-.319-1.135-.928-1.135-1.278,0-.057.057-.087.146-.087.32,0,.872.117,1.309.117.379,0,.436-1.626.721-1.626.2,0,.551,1.539.873,1.539.376,0,1.073-.436,1.364-.436.059,0,.116.029.116.088,0,.2-.727.986-.727,1.219,0,.262,1.627.581,1.627.814,0,.29-1.656.262-1.656.523,0,.2.611,1.016.611,1.276a.078.078,0,0,1-.088.088c-.233,0-1.133-.408-1.4-.408-.319,0-.836,1.19-1.1,1.19-.088,0-.145-.116-.145-.262L96.5,8.129c0-.116-.056-.232-.2-.232-.349,0-1.018-.03-1.222-.03-.146,0-.2-.029-.2-.086,0-.233,1.164-1.046,1.164-1.249m5.661,5.516c-2.034,0-3.371-1.016-3.371-1.539a.4.4,0,0,1,.408-.435c.639,0,2.034.986,2.5.986.116,0,.2-.058.2-.232,0-.523-.493-1.393-.493-1.828,0-.116.087-.2.262-.2.783,0,1.948.32,2.559.32.2,0,.259-.117.259-.233,0-.639-1.888-1.888-1.888-2.266,0-.349,2.348-.872,2.348-1.422,0-.582-3.191-.176-3.191-.727,0-.407.611-1.1.611-1.423,0-.146-.116-.2-.319-.2a22.912,22.912,0,0,1-2.237.552c-.292,0-.64-.059-.64-.465,0-.669,1.134-1.395,2.906-1.395,2.871,0,4.587,1.975,4.587,5.285,0,4.181-2.931,5.227-4.5,5.227M82.043,62.282a1.333,1.333,0,0,1-.32.843,2.134,2.134,0,0,0-1.626-.871c-2.989,0-1.858,4.327-5.052,4.327a15.191,15.191,0,0,1-1.945-.175c-.2,0-.319.088-.319.262,0,.757,1.074,2.613,4.065,2.613s5.865-1.828,5.865-4.1A3.036,3.036,0,0,0,82.449,64a.851.851,0,0,1,.669-.29c.464,0,.725.523,1.16.523a.794.794,0,0,0,.814-.814.879.879,0,0,0-.552-.816,1,1,0,0,0,.406-.783.921.921,0,0,0-.93-.956.828.828,0,0,0-.638.288c-.057-.521-.347-1.015-.9-1.015a.749.749,0,0,0-.756.814c0,.461.32.84.32,1.333" transform="translate(-39.246)" fill="#fff"/>
      <path id="Path_6" data-name="Path 6" d="M63.97,126.83c-.871,0-2.178-.93-2.178-1.453a.7.7,0,0,1,.725-.669c.727,0,2.032.9,2.032,1.656,0,.2-.146.466-.579.466m-8.1-6.5c2.323.578,3.484,1.827,3.716,3.31a6.473,6.473,0,0,0,1.074,3.164,5.014,5.014,0,0,0,3.4,1.538c1.046,0,1.885-.345,1.885-1.3,0-1.046-1.422-3.4-3.513-3.4-.2,0-.464.03-.754.03a1.4,1.4,0,0,1-.873-.262c-.464-.408-.608-2.586-1.48-3.892a3.652,3.652,0,0,0-3.424-1.859c-1.016,0-2.15.552-2.15,1.366,0,.493.262.841,2.12,1.307" transform="translate(-28.983 -63.443)" fill="#fff"/>
      <path id="Path_7" data-name="Path 7" d="M59.553,93.232c0-1.306-2.7-1.335-2.7-3.31a4.533,4.533,0,0,1,.96-2.237,3.149,3.149,0,0,0,2.178,2.789c2.583.957,2.932,2.409,2.932,3.949,0,2.615-1.829,5.866-6.533,5.866a6.611,6.611,0,0,1-6.476-6.213c0-.785.2-1.656.7-1.656.436,0,.582.348.928.7,1.309,1.307,2.73,1.655,4.793,1.655,1.858,0,3.223-.754,3.223-1.539m.116,2.091c-1,.456-1.393.378-1.393,1.4,0,.376-.088.868-.088,1.13,0,.348.059.552.464.552,1.047,0,2.7-1.771,2.7-3.282,0-.407-.233-.579-.495-.579-.233,0-.492.464-1.19.782M50.406,80.66c0-1.859,4.414-2.846,4.414-5.14a3.8,3.8,0,0,0-.406-1.539c1.539.842,2.671,2.267,2.671,3.427,0,2-2.09,2.932-2.09,4.182,0,1.452,2.236,1.684,2.236,3.484,0,1.479-2.121,3.193-2.121,5.11a2.9,2.9,0,0,0,2.643,2.9,6.667,6.667,0,0,1-1.48.2c-2.934,0-5.953-2.409-5.953-5.285a4.954,4.954,0,0,1,1.539-3.571A4.149,4.149,0,0,0,54.006,85.6c.465,0,.669-.232.669-.581,0-1.075-4.269-2.061-4.269-4.356M33.564,95a1.9,1.9,0,0,0,2.091,1.627,2.408,2.408,0,0,0,.96-.29,1.787,1.787,0,0,0,2.065,1.388,1.841,1.841,0,0,0,1.681-2.057A2.1,2.1,0,0,0,40.186,95s.142-.014.249-.035A1.934,1.934,0,0,0,42.1,92.912a1.889,1.889,0,0,0-2.031-1.7,1.822,1.822,0,0,0-.961.394,1.955,1.955,0,0,0-2.2-1.442,1.966,1.966,0,0,0-1.431,2.689l-.288.043A1.955,1.955,0,0,0,33.564,95m5.426-1.142a1.1,1.1,0,1,1-1.224-.969,1.1,1.1,0,0,1,1.224.969" transform="translate(-18.092 -39.893)" fill="#fff"/>
    </g>
  </g>
</svg>
