<svg xmlns="http://www.w3.org/2000/svg" width="141.422" height="56.307" viewBox="0 0 141.422 56.307">
  <g id="Group_24" data-name="Group 24" transform="translate(-199.966 -564.552)">
    <path id="path5037" d="M110.07.2V28.285l-.358.3-.358.3-.343.311-.328.311-.314.311-.314.326-.3.326-.3.326V.2h-31.4V25.77h-2.6V.2h-31.4V25.814h-2.6V.2H8.073V29.395L.056,55.866H7.1l3.538-11.719h1.015l5.852,11.719h8.51L20.345,44.147H33.214L29.646,55.866h7.689l3.523-11.689h1.7v-.03H59.7l-3.4,11.689h7.763l3.3-11.689h3.493l.09,11.689H77.45l7.48-11.689h4.9L87.288,55.837h7.644l2.493-11.689h4.419l-.03.666.016.681.03.651.06.651.045.311.045.311.06.311.06.311.075.311.075.3.09.3.09.3.1.3.1.281.119.281.12.266.134.281.134.266.149.252.149.266.164.252.179.237.179.252.194.222.194.237.194.222.224.222.224.207.284.237.284.237.3.222.314.207.314.207.314.192.328.163.343.178.328.148.343.148.343.133.358.133.358.118.358.1.358.1.358.089.717.163.732.118.717.1.717.089.7.059.687.03.672.03h.642l.866-.014.866-.014.881-.044.881-.044.881-.074.881-.074.881-.089.881-.1.9-.118.9-.133.9-.148.9-.148.9-.163.9-.178.9-.178.911-.207,2.657-10.609h8.719V.2h-31.4ZM10.984,43.052l.045-.163.1.163h-.149ZM38.335,27.309,37.887,28.8l-4.18,13.761-.164.488H19.807L18.747,40.8l14.8-14.989h-9.51L12.462,38.169l3.747-12.355H9.193V1.311H38.335v26Zm8.107,11.63h0l-.224.014-.209.014-.224.014h-.821l-.254.014h-.239L42.6,38.981l.866-3.166.4-1.568.985-3.684H45.5l.314-.014h1.747l.881.014.806.03.358.014.343.03.328.044.3.044.269.044.254.074.239.074.209.089.179.089.164.118.149.118.119.148.075.118.06.118.06.133L52.4,32l.03.163.016.163v.37l-.016.207-.014.207-.045.237-.045.237-.134.5-.164.562-.164.474-.179.459-.194.429-.209.4-.1.178-.1.178-.12.178-.134.163-.134.163-.134.148-.149.148-.149.133-.164.118-.164.133-.179.1-.194.118-.194.1-.209.089-.209.089-.224.074-.239.089-.254.059-.269.059-.269.059-.3.044-.3.044-.314.03-.328.03Zm21.23,4.113,3.061-10.8.12,10.8h-3.18ZM72.329,25.77H65.043L60.027,43.052H52.294l.358-.148.358-.148.343-.148.343-.163.328-.163.314-.192.314-.178.3-.192.3-.207.284-.207L55.8,41.1l.269-.237.254-.222.239-.252.239-.237.224-.266.224-.252.209-.281.194-.266.194-.3.179-.3.164-.3.164-.311.149-.326.149-.326.134-.326.119-.34.12-.355.09-.355.1-.355.075-.385.075-.37.1-.592.09-.562.06-.533.045-.5.016-.5-.016-.459-.014-.459-.06-.429-.06-.4-.1-.4-.1-.37-.149-.355-.164-.34-.179-.34-.209-.311-.239-.3-.194-.207L58,27.486l-.209-.178-.224-.163-.239-.163-.239-.148-.254-.133-.254-.118-.269-.118-.269-.089-.284-.089-.284-.089-.3-.074-.3-.059-.3-.059-.314-.044-.642-.089-.642-.044-.657-.044-.672-.014H43.188V1.312H72.33V25.771ZM90.035,43.052H85.661l6.629-10.358Zm16.288-16.794-.016,5.993-.373.518-.343.533-.343.533-.314.533-.3.533-.3.547-.254.533-.254.533-.239.518-.209.533-.209.518-.179.5-.164.5-.149.488-.134.473-.12.473-.075.311-.075.326-.075.311-.06.326-.06.311-.045.311-.045.311-.03.326H97.678l3.658-17.238L89,25.8,77.971,43.053h-.806V1.312h29.157V26.259Zm16.81,23.852-.612.1-.627.089-.627.089-.612.074-.612.059-.612.044-.6.03h-.985l-.388-.014-.373-.03-.373-.044-.358-.059-.343-.059-.343-.074-.328-.089-.314-.1-.314-.1-.3-.133-.284-.133-.284-.163-.269-.163-.254-.178-.239-.178-.239-.207-.209-.222-.209-.222-.194-.252-.179-.252-.164-.281-.149-.281-.149-.3-.12-.311-.1-.34-.09-.34-.09-.355-.06-.37-.045-.385-.03-.4-.016-.414h13.586l-1.493,5.963Zm17.229-7.058h-7.345l1.209-4.824h-14.72L118.3,43.052h-7.121v-.991l.09-.414.075-.414.09-.444.09-.444.134-.488.134-.488.149-.488.164-.474.179-.473.194-.474.209-.459.209-.459.239-.459.239-.429.254-.444.284-.414.284-.414.284-.4.314-.385.328-.37.343-.355.343-.326.373-.326.373-.311.388-.281.418-.266.418-.237.433-.222.448-.207.463-.178.478-.148.493-.118.508-.1.523-.074.537-.044.552-.014.433.014.433.03.433.059.418.089.209.059.194.059.194.059.179.089.179.074.179.1.164.1.164.1.149.133.149.133.134.133.134.163.12.148.1.178.09.192.09.192.075.207.06.222.045.222.045.252.016.252v.547l-.03.3h8.778l.134-.607.12-.7.06-.37.03-.4.03-.4v-.414l-.014-.429-.045-.444-.045-.207-.03-.222-.06-.222-.06-.222-.075-.237-.075-.222-.09-.222-.1-.222-.1-.222-.134-.222-.134-.222-.149-.222-.179-.237-.194-.222-.194-.222-.209-.207-.224-.207-.239-.192-.239-.178-.254-.178-.269-.178-.269-.148-.284-.148-.3-.148-.3-.133-.314-.133-.328-.118-.328-.118-.328-.1-.358-.089-.343-.089-.373-.089L128.7,24.5l-.373-.074-.388-.059-.4-.044-.821-.089-.836-.074-.881-.03-.9-.014-.672.014-.7.014-.732.044-.761.059-.791.089-.806.1-.821.133-.836.178-.418.089-.433.1-.418.118-.433.118-.433.133-.433.148-.433.148-.418.163-.433.178-.433.192-.418.192-.433.207-.418.222-.418.237-.418.237-.418.266V1.31h29.187V43.051Z" transform="translate(199.916 564.367)" fill="#fff" stroke="rgba(255,255,255,0)" stroke-miterlimit="10" stroke-width="0.008"/>
  </g>
</svg>
