  <svg
    width="418"
    height="851"
    viewBox="0 0 418 851"
    fill="none"
    xmlns="http://www.w3.org/2000/svg"
    xmlnsXlink="http://www.w3.org/1999/xlink"
  >
    <path
      d="M3.59376 213.58C1.92227 213.58 0.554688 212.21 0.554688 210.535V184.846C0.554688 183.172 1.92227 181.802 3.59376 181.802"
      stroke="#484848"
      stroke-miterlimit="10"
    />
    <path
      d="M3.59376 303.244C1.92227 303.244 0.554688 301.874 0.554688 300.2V245.891C0.554688 244.217 1.92227 242.847 3.59376 242.847"
      stroke="#484848"
      stroke-miterlimit="10"
    />
    <path
      d="M3.59376 382.138C1.92227 382.138 0.554688 380.768 0.554688 379.093V324.785C0.554688 323.11 1.92227 321.74 3.59376 321.74"
      stroke="#484848"
      stroke-miterlimit="10"
    />
    <path
      d="M414.402 259.478C416.074 259.478 417.441 260.848 417.441 262.522V352.453C417.441 354.127 416.074 355.497 414.402 355.497"
      stroke="#484848"
      stroke-miterlimit="10"
    />
    <path
      d="M349.062 1.44629H68.7072C33.2293 1.44629 4.46875 30.2593 4.46875 65.802V785.818C4.46875 821.36 33.2293 850.173 68.7072 850.173H349.062C384.54 850.173 413.3 821.36 413.3 785.818V65.802C413.3 30.2593 384.54 1.44629 349.062 1.44629Z"
      stroke="#484848"
      stroke-miterlimit="10"
    />
    <path
      d="M252.491 1.44629C251.693 1.44629 251.048 2.01716 250.934 2.77831C250.668 4.49091 249.034 5.70876 247.287 5.70876H169.79C168.043 5.70876 166.447 4.52897 166.143 2.77831C166.029 2.01716 165.346 1.44629 164.586 1.44629"
      stroke="#484848"
      stroke-miterlimit="10"
    />
    <mask
      id="mask0_2915_1741"
      style="mask-type:luminance"
      maskUnits="userSpaceOnUse"
      x="21"
      y="18"
      width="376"
      height="814"
    >
      <path
        d="M69.9221 19.3389H348.073C374.54 19.3389 396.198 41.0354 396.198 67.5529V783.268C396.198 809.785 374.54 831.482 348.073 831.482H69.9221C43.4552 831.482 21.7969 809.785 21.7969 783.268V67.5529C21.7969 41.0354 43.4552 19.3389 69.9221 19.3389ZM163.639 60.3271H254.318C262.914 60.3271 269.861 53.3662 269.861 44.7562C269.861 36.153 263.225 29.1853 254.318 29.1853H163.639C155.043 29.1853 148.096 36.1463 148.096 44.7562C148.096 53.3662 155.043 60.3271 163.639 60.3271Z"
        fill="white"
        stroke="white"
      />
    </mask>
    <g mask="url(#mask0_2915_1741)">
      <path
        d="M348.073 18.8389H69.9221C43.1782 18.8389 21.2969 40.7602 21.2969 67.5529V783.268C21.2969 810.061 43.1782 831.982 69.9221 831.982H348.073C374.817 831.982 396.698 810.061 396.698 783.268V67.5529C396.698 40.7602 374.817 18.8389 348.073 18.8389ZM254.318 59.8271H163.639C155.32 59.8271 148.596 53.0909 148.596 44.7562C148.596 36.4216 155.32 29.6853 163.639 29.6853H254.318C262.941 29.6853 269.361 36.4216 269.361 44.7562C269.361 53.0909 262.637 59.8271 254.318 59.8271Z"
        stroke="#484848"
        stroke-miterlimit="10"
      />
    </g>
    <mask
      id="mask1_2915_1741"
      style="mask-type:alpha"
      maskUnits="userSpaceOnUse"
      x="20"
      y="18"
      width="378"
      height="815"
    >
      <path
        d="M348.073 18.8389H69.9221C43.1782 18.8389 21.2969 40.7602 21.2969 67.5529V783.268C21.2969 810.061 43.1782 831.982 69.9221 831.982H348.073C374.817 831.982 396.698 810.061 396.698 783.268V67.5529C396.698 40.7602 374.817 18.8389 348.073 18.8389ZM254.318 59.8271H163.639C155.32 59.8271 148.596 53.0909 148.596 44.7562C148.596 36.4216 155.32 29.6853 163.639 29.6853H254.318C262.941 29.6853 269.361 36.4216 269.361 44.7562C269.361 53.0909 262.637 59.8271 254.318 59.8271Z"
        fill="white"
        stroke="#484848"
        stroke-miterlimit="10"
      />
    </mask>
    <g mask="url(#mask1_2915_1741)">
      <rect
        x="-8.39062"
        y="-40.916"
        width="426.887"
        height="886.5"
        fill="url(#pattern0_2915_1741)"
      />
      <rect
        x="-8.39062"
        y="-40.916"
        width="426.887"
        height="886.5"
        fill="black"
        fill-opacity="0.4"
      />
      <rect
        x="-8.39062"
        y="-40.916"
        width="426.887"
        height="886.5"
        stroke="#484848"
      />
    </g>
    <mask id="path-11-inside-1_2915_1741" fill="white">
      <path d="M251.812 36.2698C256.484 36.2698 260.283 40.0756 260.283 44.7567C260.283 49.4378 256.484 53.2436 251.812 53.2436C247.139 53.2436 243.34 49.4378 243.34 44.7567C243.34 40.0756 247.139 36.2698 251.812 36.2698ZM251.812 35.3184C246.607 35.3184 242.391 39.5428 242.391 44.7567C242.391 49.9706 246.607 54.195 251.812 54.195C257.016 54.195 261.233 49.9706 261.233 44.7567C261.233 39.5428 257.016 35.3184 251.812 35.3184Z" />
    </mask>
    <path
      d="M251.812 36.2698C256.484 36.2698 260.283 40.0756 260.283 44.7567C260.283 49.4378 256.484 53.2436 251.812 53.2436C247.139 53.2436 243.34 49.4378 243.34 44.7567C243.34 40.0756 247.139 36.2698 251.812 36.2698ZM251.812 35.3184C246.607 35.3184 242.391 39.5428 242.391 44.7567C242.391 49.9706 246.607 54.195 251.812 54.195C257.016 54.195 261.233 49.9706 261.233 44.7567C261.233 39.5428 257.016 35.3184 251.812 35.3184Z"
      fill="white"
    />
    <path
      d="M251.812 37.2698C255.93 37.2698 259.283 40.6261 259.283 44.7567H261.283C261.283 39.525 257.038 35.2698 251.812 35.2698V37.2698ZM259.283 44.7567C259.283 48.8872 255.93 52.2436 251.812 52.2436V54.2436C257.038 54.2436 261.283 49.9884 261.283 44.7567H259.283ZM251.812 52.2436C247.693 52.2436 244.34 48.8872 244.34 44.7567H242.34C242.34 49.9884 246.585 54.2436 251.812 54.2436V52.2436ZM244.34 44.7567C244.34 40.6262 247.693 37.2698 251.812 37.2698V35.2698C246.585 35.2698 242.34 39.525 242.34 44.7567H244.34ZM251.812 34.3184C246.053 34.3184 241.391 38.9922 241.391 44.7567H243.391C243.391 40.0933 247.161 36.3184 251.812 36.3184V34.3184ZM241.391 44.7567C241.391 50.5212 246.053 55.195 251.812 55.195V53.195C247.161 53.195 243.391 49.42 243.391 44.7567H241.391ZM251.812 55.195C257.57 55.195 262.233 50.5212 262.233 44.7567H260.233C260.233 49.4201 256.462 53.195 251.812 53.195V55.195ZM262.233 44.7567C262.233 38.9922 257.57 34.3184 251.812 34.3184V36.3184C256.462 36.3184 260.233 40.0933 260.233 44.7567H262.233Z"
      fill="#484848"
      mask="url(#path-11-inside-1_2915_1741)"
    />
    <path
      d="M251.815 49.6666C254.521 49.6666 256.715 47.4685 256.715 44.7571C256.715 42.0457 254.521 39.8477 251.815 39.8477C249.108 39.8477 246.914 42.0457 246.914 44.7571C246.914 47.4685 249.108 49.6666 251.815 49.6666Z"
      stroke="#484848"
      stroke-miterlimit="10"
    />
    <defs>
      <pattern
        id="pattern0_2915_1741"
        patternContentUnits="objectBoundingBox"
        width="1"
        height="1"
      >
        <use
          xlinkHref="#image0_2915_1741"
          transform="matrix(0.000841779 0 0 0.000405844 -0.0825113 0)"
        />
      </pattern>
    </defs>
  </svg>